<svg xmlns="http://www.w3.org/2000/svg" xmlns:svg="http://www.w3.org/2000/svg" version="1.1" viewBox="0 0 569 568" width="142.25" height="142" id="svg30">
  <defs id="defs30"/>
  <path d="m 106,0 14,7 27,16 28,16 26,15 24,14 49,28 9,5 4,-1 20,-12 28,-16 48,-28 28,-16 24,-14 21,-12 4,-1 v 104 h 107 l 1,3 -8,13 -16,28 -10,17 -16,28 -14,24 -15,26 -8,14 -11,19 -3,6 1,5 10,16 16,28 10,17 14,24 30,52 14,24 6,11 -1,1 H 462 v 107 l -5,-2 -25,-14 -9,-6 -25,-14 -24,-14 -21,-12 -24,-14 -21,-12 -23,-13 -9,3 -24,14 -23,13 -41,24 -21,12 -45,26 -12,7 h -4 V 461 H 0 l 2,-6 14,-24 16,-28 9,-15 30,-52 14,-24 9,-16 6,-10 -1,-6 L 85,255 57,207 12,129 0,108 v -1 l 106,-1 -1,-8 z" fill="#3cb7fe" id="path2" style="display:inline"/>
  <path d="m 106,0 14,7 27,16 28,16 26,15 24,14 49,28 9,5 4,-1 20,-12 28,-16 48,-28 28,-16 24,-14 21,-12 4,-1 v 106 l -8,6 -13,8 -17,10 -49,28 -22,13 -23,13 -6,2 -8,-16 -15,-32 -13,-28 -4,-4 -3,9 -10,21 -7,15 -7,14 -7,16 -2,5 -5,-1 -15,-8 -24,-14 -26,-15 -17,-10 -16,-9 -19,-11 -11,-6 7,12 13,23 30,52 16,27 9,16 -1,3 -36,17 -30,14 -12,5 h -2 v 3 l 6,2 23,11 29,13 20,9 3,1 -2,7 -14,24 -8,14 -10,17 -15,26 -14,24 -13,21 -6,7 H 0 l 2,-6 14,-24 16,-28 9,-15 30,-52 14,-24 9,-16 6,-10 -1,-6 L 85,255 57,207 12,129 0,108 v -1 l 106,-1 -1,-8 z" fill="#cf4b32" id="path3" style="display:inline"/>
  <path d="m 282,107 4,2 13,27 11,24 12,26 6,-2 27,-15 20,-12 28,-16 26,-15 17,-10 6,-4 h 2 l -1,4 -10,17 -10,18 -10,17 -16,28 -14,24 -11,19 -3,4 1,3 12,5 27,13 28,13 10,5 v 4 l -41,19 -32,15 -5,2 2,5 9,15 15,26 28,48 13,23 6,9 v 4 l -5,-1 -13,-8 -27,-15 -24,-14 -29,-17 -25,-14 -7,-3 -14,29 -13,28 -9,20 -4,1 -8,-16 -15,-32 -12,-27 -1,-3 -5,1 -17,9 -24,14 -21,12 -17,10 -26,15 -10,6 -13,6 2,-5 10,-17 14,-24 15,-26 12,-20 6,-11 13,-22 3,-7 -6,-1 -32,-15 -25,-11 -18,-9 v -3 l 36,-16 16,-8 26,-12 h 2 l -1,-5 -15,-26 -14,-24 -15,-26 -14,-24 -11,-20 -5,-8 h 3 l 11,6 19,11 16,9 24,14 26,15 24,14 7,4 4,1 1,-5 12,-27 7,-14 10,-21 z" fill="#fdfdfd" id="path4" style="display:inline"/>
  <path d="m 106,0 14,7 27,16 28,16 26,15 24,14 49,28 9,5 4,-1 20,-12 28,-16 48,-28 28,-16 24,-14 21,-12 4,-1 v 106 l -8,6 -13,8 -17,10 -49,28 -22,13 -23,13 -6,2 -8,-16 -15,-32 -13,-28 -4,-4 -3,9 -10,21 -7,15 -7,14 -7,16 -2,5 -5,-1 -15,-8 -24,-14 -26,-15 -17,-10 -16,-9 -19,-11 -15,-9 -3,-3 -1,-9 z" fill="#8154bf" id="path7" style="display:inline"/>
  <path d="m 569,106.21328 -7,14.09887 -16,27.19068 -16,28.19774 -15,26.18361 -14,24.1695 -28,49.34604 -5,9.06357 1,4.02824 12,20.14125 16,28.19773 28,48.33899 16,28.1978 14,24.1694 12,21.1484 1,4.0282 H 462 l -6,-8.0565 -8,-13.0918 -10,-17.1201 -28,-49.346 -13,-22.15538 -13,-23.16243 -2,-6.04238 16,-8.05649 32,-15.10595 28,-13.0918 4,-4.02824 -9,-3.0212 -21,-10.07062 -15,-7.04944 -14,-7.04943 -16,-7.04944 -5,-2.01412 1,-5.03531 8,-15.10593 14,-24.16949 15,-26.18362 10,-17.12006 9,-16.11299 11,-19.13418 9,-15.10593 3,-3.02119 9,-1.00706 z" fill="#8154bf" id="use30" style="display:inline;fill:#0097b2;fill-opacity:1;stroke-width:1.00352"/>
</svg>