<?xml version="1.0" encoding="UTF-8" standalone="no"?>
<svg
   viewBox="0 0 498757.5 196770.02"
   version="1.1"
   id="svg223"
   width="498757.5"
   height="196770.02"
   xmlns="http://www.w3.org/2000/svg"
   xmlns:svg="http://www.w3.org/2000/svg">
  <defs
     id="defs223" />
  <g
     id="freepik--background-complete--inject-2"
     transform="translate(-31807.5,-25344.997)">
    <path
       d="m 692.37,304.22 -13.12,0.28 -6.66,0.11 c -2.23,0.05 -4.47,0 -6.7,0.06 h -0.44 v -0.45 L 665.39,293 v -0.5 h 0.5 l 13.24,0.06 c 4.42,0 8.83,0.11 13.24,0.16 h 0.28 V 293 c 0,1.9 -0.08,3.79 -0.13,5.66 z m 0,0 -0.14,-5.65 c -0.05,-1.86 -0.11,-3.7 -0.13,-5.54 l 0.27,0.28 c -4.41,0.05 -8.82,0.16 -13.24,0.16 l -13.24,0.06 0.5,-0.5 v 11.19 l -0.45,-0.44 c 2.18,0 4.36,0 6.55,0.05 L 679,304 Z"
       style="fill:#ebebeb"
       id="path1" />
    <path
       d="m 677.6,318.33 -13.12,0.28 -6.67,0.11 c -2.22,0 -4.46,0 -6.69,0.06 h -0.44 v -0.45 -11.19 -0.5 h 0.5 l 13.24,0.07 c 4.41,0 8.83,0.11 13.24,0.16 h 0.28 v 0.27 c 0,1.9 -0.08,3.79 -0.13,5.66 z m 0,0 -0.14,-5.65 c -0.05,-1.86 -0.11,-3.7 -0.13,-5.54 l 0.27,0.28 c -4.41,0.05 -8.83,0.16 -13.24,0.16 l -13.24,0.06 0.5,-0.5 v 11.19 l -0.45,-0.44 c 2.18,0 4.36,0 6.55,0.05 l 6.57,0.12 z"
       style="fill:#ebebeb"
       id="path2" />
    <path
       d="m 707.14,318.33 -13.12,0.28 -6.66,0.11 c -2.23,0 -4.47,0 -6.7,0.06 h -0.44 v -0.45 l -0.06,-11.19 v -0.5 h 0.5 l 13.24,0.07 c 4.42,0 8.83,0.11 13.24,0.16 h 0.28 v 0.27 c 0,1.9 -0.09,3.79 -0.13,5.66 z m 0,0 -0.14,-5.65 c 0,-1.86 -0.11,-3.7 -0.13,-5.54 l 0.27,0.28 c -4.41,0.05 -8.82,0.16 -13.24,0.16 l -13.24,0.06 0.5,-0.5 v 11.19 l -0.45,-0.44 c 2.19,0 4.36,0 6.55,0.05 l 6.58,0.12 z"
       style="fill:#ebebeb"
       id="path3" />
    <path
       d="m 314.79,171.07 -13.12,0.28 -6.66,0.11 c -2.23,0 -4.47,0 -6.7,0 h -0.44 v -0.45 l -0.06,-11.19 v -0.5 h 0.5 l 13.24,0.06 c 4.42,0 8.83,0.11 13.24,0.16 h 0.28 v 0.27 c 0,1.9 -0.09,3.78 -0.14,5.65 z m 0,0 -0.14,-5.66 c 0,-1.86 -0.11,-3.7 -0.13,-5.53 l 0.27,0.27 c -4.41,0 -8.82,0.16 -13.24,0.16 l -13.24,0.07 0.5,-0.5 -0.05,11.19 -0.45,-0.45 c 2.18,0 4.36,0 6.55,0.06 l 6.58,0.11 z"
       style="fill:#ebebeb"
       id="path4" />
    <path
       d="m 300,185.18 -13.12,0.28 -6.67,0.11 c -2.22,0 -4.46,0 -6.69,0.05 h -0.44 v -0.45 L 273,174 v -0.5 h 0.5 l 13.24,0.06 c 4.41,0 8.83,0.11 13.24,0.16 h 0.28 V 174 c 0,1.9 -0.08,3.78 -0.13,5.65 z m 0,0 -0.14,-5.66 c -0.05,-1.86 -0.11,-3.7 -0.13,-5.53 l 0.27,0.27 c -4.41,0.05 -8.83,0.16 -13.24,0.16 l -13.24,0.07 0.5,-0.5 -0.02,11.19 -0.45,-0.45 c 2.18,0 4.36,0 6.55,0.06 l 6.57,0.11 z"
       style="fill:#ebebeb"
       id="path5" />
    <path
       d="m 329.56,185.18 -13.12,0.28 -6.66,0.11 c -2.23,0 -4.46,0 -6.7,0.05 h -0.44 v -0.45 L 302.58,174 v -0.5 h 0.5 l 13.24,0.06 c 4.42,0 8.83,0.11 13.24,0.16 h 0.28 V 174 c 0,1.9 -0.09,3.78 -0.13,5.65 z m 0,0 -0.14,-5.66 c 0,-1.86 -0.11,-3.7 -0.13,-5.53 l 0.27,0.27 c -4.41,0.05 -8.82,0.16 -13.24,0.16 l -13.24,0.07 0.5,-0.5 -0.05,11.19 -0.45,-0.45 c 2.19,0 4.36,0 6.55,0.06 l 6.58,0.11 z"
       style="fill:#ebebeb"
       id="path6" />
    <path
       d="m 98.88,245.11 -13.12,0.28 -6.67,0.11 c -2.22,0 -4.46,0 -6.69,0.05 H 72 v -0.45 -11.19 -0.5 h 0.5 l 13.24,0.06 c 4.41,0 8.83,0.11 13.24,0.16 h 0.28 v 0.27 c 0,1.9 -0.08,3.78 -0.13,5.65 z m 0,0 -0.14,-5.66 c 0,-1.86 -0.11,-3.7 -0.13,-5.53 l 0.27,0.27 c -4.41,0.05 -8.83,0.16 -13.24,0.16 l -13.24,0.07 0.5,-0.5 -0.05,11.19 -0.45,-0.45 c 2.18,0 4.36,0 6.55,0.06 l 6.57,0.11 z"
       style="fill:#ebebeb"
       id="path7" />
    <path
       d="m 537.86,171.06 -13.12,0.28 -6.66,0.11 c -2.23,0.05 -4.47,0 -6.7,0.05 h -0.44 v -0.45 l -0.06,-11.19 v -0.5 h 0.5 l 13.24,0.06 c 4.42,0 8.83,0.12 13.24,0.17 h 0.28 v 0.27 c 0,1.9 -0.08,3.79 -0.13,5.65 z m 0,0 -0.14,-5.65 c -0.05,-1.87 -0.11,-3.71 -0.13,-5.54 l 0.27,0.27 c -4.41,0.05 -8.82,0.16 -13.24,0.17 l -13.24,0.06 0.5,-0.5 -0.05,11.19 -0.45,-0.45 c 2.18,0 4.36,0 6.55,0.06 l 6.58,0.11 z"
       style="fill:#ebebeb"
       id="path8" />
    <path
       d="m 690.84,62.38 -13.12,0.28 -6.67,0.11 c -2.22,0 -4.46,0 -6.69,0.06 h -0.44 v -0.45 -11.19 -0.5 h 0.5 l 13.24,0.06 c 4.41,0 8.83,0.12 13.24,0.17 h 0.28 v 0.27 c 0,1.9 -0.08,3.79 -0.13,5.65 z m 0,0 -0.14,-5.65 c -0.05,-1.87 -0.11,-3.71 -0.13,-5.54 l 0.27,0.27 c -4.41,0 -8.83,0.16 -13.24,0.17 l -13.24,0.06 0.5,-0.5 -0.05,11.19 -0.45,-0.45 c 2.18,0 4.36,0 6.55,0.06 l 6.57,0.11 z"
       style="fill:#ebebeb"
       id="path9" />
    <path
       d="m 705.61,76.49 -13.12,0.28 -6.66,0.11 c -2.23,0.05 -4.47,0 -6.7,0.05 h -0.44 v -0.45 l -0.06,-11.19 v -0.5 h 0.5 l 13.24,0.06 c 4.42,0 8.83,0.12 13.24,0.17 h 0.28 v 0.27 c 0,1.9 -0.09,3.79 -0.14,5.65 z m 0,0 -0.14,-5.65 c 0,-1.87 -0.11,-3.71 -0.13,-5.54 l 0.27,0.27 c -4.41,0.05 -8.82,0.16 -13.24,0.17 l -13.24,0.06 0.5,-0.5 v 11.19 l -0.45,-0.45 c 2.18,0 4.36,0 6.55,0.06 l 6.58,0.11 z"
       style="fill:#ebebeb"
       id="path10" />
    <path
       d="m 69.34,62.39 -13.13,0.28 -6.66,0.11 c -2.22,0 -4.46,0 -6.69,0.06 H 42.41 V 62.39 51.2 50.7 h 0.51 l 13.24,0.07 c 4.41,0 8.82,0.11 13.24,0.16 h 0.27 v 0.27 c 0,1.9 -0.09,3.79 -0.13,5.66 z m 0,0 -0.15,-5.65 c 0,-1.87 -0.11,-3.71 -0.13,-5.54 l 0.28,0.27 c -4.42,0.06 -8.83,0.16 -13.24,0.17 L 42.86,51.7 43.36,51.2 43.3,62.39 42.86,62 c 2.18,0 4.35,0 6.54,0 l 6.58,0.11 z"
       style="fill:#ebebeb"
       id="path11" />
    <rect
       x="178.46001"
       y="53.220001"
       width="118.54"
       height="79.879997"
       style="fill:#ffffff"
       id="rect11" />
    <path
       d="M 297.49,133.6 H 178 V 52.72 H 297.49 Z M 179,132.6 H 296.49 V 53.72 H 179 Z"
       style="fill:#ebebeb"
       id="path12" />
    <path
       d="m 189.91,59.26 a 2.73,2.73 0 1 1 -2.73,-2.73 2.73,2.73 0 0 1 2.73,2.73 z"
       style="fill:#37474f"
       id="path13" />
    <path
       d="m 201.06,59.26 a 2.73,2.73 0 1 1 -2.73,-2.73 2.73,2.73 0 0 1 2.73,2.73 z"
       style="fill:#ebebeb"
       id="path14" />
    <path
       d="m 212.2,59.26 a 2.73,2.73 0 1 1 -2.73,-2.73 2.73,2.73 0 0 1 2.73,2.73 z"
       style="fill:#ffc727"
       id="path15" />
    <rect
       x="178.46001"
       y="64.75"
       width="118.54"
       height="1"
       style="fill:#ebebeb"
       id="rect15" />
    <path
       d="m 200,158.58 c 0,-1.25 0.17,-4.58 0.17,-6 0,-6.08 -2.17,-8.83 -7.83,-9 -2.66,-0.16 -4.24,-1.74 -4.24,-4 0,-2.26 1.58,-3.83 4.24,-4 5.66,-0.25 7.83,-2.91 7.83,-9.08 0,-1.41 -0.17,-4.74 -0.17,-6 0,-8.08 3.42,-13.24 16.32,-16.07 2.59,-0.59 4.58,1 4.58,3.41 a 3.49,3.49 0 0 1 -2.33,3.41 c -8.07,2.5 -9.24,5.08 -9.24,10.75 0,1.66 0.17,4.41 0.17,6.16 0,6.49 -3.17,9.66 -8.66,11.41 5.58,1.83 8.66,4.91 8.66,11.41 0,1.74 -0.17,4.49 -0.17,6.16 0,5.66 1.17,8.24 9.24,10.74 a 3.49,3.49 0 0 1 2.33,3.41 c 0,2.42 -2,4 -4.58,3.42 -12.9,-2.8 -16.32,-7.97 -16.32,-16.13 z"
       style="fill:#ebebeb"
       id="path16" />
    <path
       d="m 248.8,120.53 c 0,1.25 -0.17,4.58 -0.17,6 0,6.17 2.25,8.83 7.92,9.08 2.58,0.17 4.16,1.75 4.16,4 0,2.25 -1.58,3.83 -4.16,4 -5.67,0.17 -7.92,2.92 -7.92,9 0,1.41 0.17,4.74 0.17,6 0,8.16 -3.41,13.33 -16.32,16.16 -2.58,0.58 -4.58,-1 -4.58,-3.42 a 3.45,3.45 0 0 1 2.41,-3.41 c 8,-2.5 9.16,-5.08 9.16,-10.74 0,-1.67 -0.16,-4.42 -0.16,-6.16 0,-6.5 3.16,-9.66 8.66,-11.41 -5.58,-1.83 -8.66,-4.92 -8.66,-11.41 0,-1.75 0.16,-4.5 0.16,-6.16 0,-5.67 -1.16,-8.25 -9.16,-10.75 a 3.45,3.45 0 0 1 -2.41,-3.41 c 0,-2.41 2,-4 4.58,-3.41 12.91,2.8 16.32,7.96 16.32,16.04 z"
       style="fill:#ebebeb"
       id="path17" />
    <path
       d="m 614.58,210.8 a 3.39,3.39 0 0 1 -2.37,5.81 3.58,3.58 0 0 1 -2.48,-1 L 594.61,200.3 a 0.41,0.41 0 0 1 -0.27,-0.32 l -0.16,-0.11 a 1.54,1.54 0 0 1 -0.17,-0.43 0.3,0.3 0 0 1 -0.16,-0.21 c -0.05,-0.11 -0.05,-0.27 -0.1,-0.33 -0.05,-0.06 -0.11,-0.21 -0.11,-0.26 v -0.38 c 0,-0.11 -0.06,-0.16 -0.06,-0.32 0,-0.16 0.06,-0.22 0.06,-0.27 v -0.38 c 0,-0.11 0.11,-0.16 0.11,-0.22 0,-0.06 0,-0.26 0.1,-0.43 0.1,-0.17 0.06,0 0.06,-0.1 a 3.17,3.17 0 0 1 0.27,-0.49 c 0,0 0,-0.11 0.1,-0.11 a 1.2,1.2 0 0 1 0.33,-0.37 l 15.12,-15.34 a 3.52,3.52 0 0 1 4.85,0 3.42,3.42 0 0 1 0,4.84 l -12.76,12.87 z"
       style="fill:#ebebeb"
       id="path18" />
    <path
       d="m 628.3,212.52 13.19,-31.38 a 3,3 0 0 1 3.93,-1.56 2.9,2.9 0 0 1 1.5,3.82 l -13.18,31.44 a 3,3 0 0 1 -2.75,1.77 2.63,2.63 0 0 1 -1.08,-0.21 2.91,2.91 0 0 1 -1.61,-3.88 z"
       style="fill:#ebebeb"
       id="path19" />
    <path
       d="m 673,199.87 c 0,0 0,0.06 -0.05,0.06 a 2.69,2.69 0 0 1 -0.38,0.37 l -15.12,15.34 a 3.52,3.52 0 0 1 -4.85,0 3.42,3.42 0 0 1 0,-4.84 l 12.76,-12.86 -12.76,-12.87 a 3.42,3.42 0 0 1 0,-4.84 3.52,3.52 0 0 1 4.85,0 l 15.12,15.34 a 3.38,3.38 0 0 1 0.38,0.37 c 0.05,0 0.05,0.11 0.05,0.11 a 4.37,4.37 0 0 1 0.27,0.49 c 0,0.05 0.06,0.05 0.06,0.1 a 2.12,2.12 0 0 0 0.16,0.49 c 0,0.05 0,0.05 0,0.16 v 0.38 c 0,0.05 0,0.21 0,0.27 0,0.06 0,0.21 0,0.26 v 0.44 c 0,0.05 0,0.05 0,0.1 a 3.75,3.75 0 0 0 -0.16,0.49 c 0,0.05 -0.06,0.05 -0.06,0.16 0,0.11 -0.19,0.27 -0.27,0.48 z"
       style="fill:#ebebeb"
       id="path20" />
    <path
       d="m 586.5,133.33 a 12.9,12.9 0 0 1 -12,12.87 v 0 H 501.46 A 15.17,15.17 0 0 1 500,116 a 25.56,25.56 0 0 1 49.53,-8 15.18,15.18 0 0 1 21.97,12.6 12,12 0 0 1 2.09,-0.17 12.91,12.91 0 0 1 12.91,12.9 z"
       style="fill:#ebebeb"
       id="path21" />
    <path
       d="m 657.88,309.06 8.29,-13.37 -4.12,-2.55 a 3.74,3.74 0 0 1 -1.71,-3.52 22,22 0 0 0 0.08,-2.3 3.76,3.76 0 0 1 2,-3.43 l 4.24,-2.28 -7.44,-13.87 -4.29,2.26 a 3.69,3.69 0 0 1 -3.84,-0.21 23.52,23.52 0 0 0 -2.13,-1.32 3.69,3.69 0 0 1 -1.91,-3.36 l 0.16,-4.81 -15.73,-0.49 -0.15,4.83 a 3.68,3.68 0 0 1 -2.13,3.23 c -0.37,0.17 -0.73,0.36 -1.09,0.55 -0.36,0.19 -0.72,0.39 -1.06,0.6 a 3.68,3.68 0 0 1 -3.86,0 l -4.12,-2.55 -8.29,13.37 4.13,2.56 a 3.71,3.71 0 0 1 1.7,3.51 c -0.06,0.76 -0.09,1.53 -0.08,2.29 a 3.77,3.77 0 0 1 -1.95,3.44 l -4.24,2.27 7.44,13.87 4.24,-2.27 a 3.76,3.76 0 0 1 3.94,0.27 19.63,19.63 0 0 0 1.95,1.2 3.73,3.73 0 0 1 2,3.36 l -0.15,4.86 15.72,0.49 0.15,-4.82 a 3.74,3.74 0 0 1 2.18,-3.25 c 0.36,-0.16 0.7,-0.34 1.05,-0.52 0.35,-0.18 0.68,-0.38 1,-0.58 a 3.74,3.74 0 0 1 3.92,0 z M 646,298.24 a 12.89,12.89 0 1 1 4.54,-15 12.88,12.88 0 0 1 -4.54,15 z"
       style="fill:#ebebeb"
       id="path22" />
    <path
       d="m 571,340.85 9.54,-5.51 -1.68,-2.92 a 2.62,2.62 0 0 1 0.09,-2.75 15.55,15.55 0 0 0 0.82,-1.43 2.63,2.63 0 0 1 2.33,-1.45 h 3.38 v -11 h -3.38 a 2.63,2.63 0 0 1 -2.33,-1.45 15.55,15.55 0 0 0 -0.82,-1.43 2.62,2.62 0 0 1 -0.09,-2.75 l 1.68,-2.92 -9.54,-5.53 -1.69,2.94 a 2.63,2.63 0 0 1 -2.43,1.28 h -0.81 -0.82 a 2.63,2.63 0 0 1 -2.42,-1.27 l -1.7,-3 -9.54,5.51 1.69,2.93 a 2.64,2.64 0 0 1 -0.1,2.75 15.38,15.38 0 0 0 -0.82,1.42 2.63,2.63 0 0 1 -2.33,1.45 h -3.38 v 11 h 3.38 a 2.63,2.63 0 0 1 2.33,1.45 15.38,15.38 0 0 0 0.82,1.42 2.64,2.64 0 0 1 0.1,2.75 l -1.69,2.93 9.54,5.51 1.69,-2.93 a 2.63,2.63 0 0 1 2.43,-1.28 h 0.82 0.81 a 2.63,2.63 0 0 1 2.43,1.28 z m -4.93,-10.54 a 9,9 0 1 1 9,-9 9,9 0 0 1 -8.96,9 z"
       style="fill:#ebebeb"
       id="path23" />
    <path
       d="m 86.31,102.85 a 2.62,2.62 0 0 1 1.29,2.43 c 0,0.27 0,0.54 0,0.81 0,0.27 0,0.55 0,0.82 a 2.62,2.62 0 0 1 -1.28,2.42 l -2.93,1.67 5.51,9.55 2.92,-1.69 a 2.62,2.62 0 0 1 2.75,0.1 15.38,15.38 0 0 0 1.42,0.82 2.63,2.63 0 0 1 1.45,2.33 v 3.37 h 11 v -3.37 a 2.62,2.62 0 0 1 1.44,-2.33 14.17,14.17 0 0 0 1.42,-0.82 2.62,2.62 0 0 1 2.75,-0.1 l 2.93,1.69 5.51,-9.55 -2.94,-1.7 a 2.6,2.6 0 0 1 -1.28,-2.42 c 0,-0.27 0,-0.54 0,-0.81 0,-0.27 0,-0.54 0,-0.81 a 2.62,2.62 0 0 1 1.28,-2.43 l 2.94,-1.69 -5.49,-9.53 -2.92,1.69 a 2.62,2.62 0 0 1 -2.75,-0.09 15.48,15.48 0 0 0 -1.42,-0.83 2.61,2.61 0 0 1 -1.45,-2.33 v -3.37 h -11 v 3.37 A 2.63,2.63 0 0 1 96,92.38 15.64,15.64 0 0 0 94.57,93.21 2.6,2.6 0 0 1 91.83,93.3 l -2.93,-1.69 -5.51,9.55 z M 103,97.06 a 9,9 0 1 1 -9,9 9,9 0 0 1 9,-9 z"
       style="fill:#ebebeb"
       id="path24" />
  </g>
  <g
     id="freepik--chair-2--inject-2"
     transform="translate(-31807.5,-25344.997)">
    <polygon
       points="382.28,418.76 494.23,418.76 471.91,288.91 388.19,288.91 "
       style="fill:#dbdbdb"
       id="polygon24" />
    <polygon
       points="382.28,418.76 392.09,418.76 397.6,288.91 388.19,288.91 "
       style="fill:#a6a6a6"
       id="polygon25" />
  </g>
  <g
     id="freepik--chair-1--inject-2"
     transform="translate(-31807.5,-25344.997)">
    <polygon
       points="369.89,418.76 257.94,418.76 280.26,288.91 363.98,288.91 "
       style="fill:#dbdbdb"
       id="polygon26" />
    <polygon
       points="369.89,418.76 360.08,418.76 354.57,288.91 363.98,288.91 "
       style="fill:#a6a6a6"
       id="polygon27" />
  </g>
  <g
     id="freepik--Windows--inject-2"
     transform="translate(-31807.5,-25344.997)">
    <rect
       x="531.13"
       y="215.42999"
       width="103.1"
       height="65.769997"
       style="fill:#ffffff"
       id="rect27" />
    <path
       d="m 634.88,281.85 h -104.4 v -67.07 h 104.4 z m -103.1,-1.3 H 633.57 V 216.08 H 531.78 Z"
       style="fill:#ebebeb"
       id="path27" />
    <rect
       x="531.13"
       y="215.42999"
       width="103.1"
       height="12.44"
       style="fill:#ffc727"
       id="rect28" />
    <path
       d="m 634.88,228.52 h -104.4 v -13.74 h 104.4 z m -103.1,-1.3 H 633.57 V 216.08 H 531.78 Z"
       style="fill:#ebebeb"
       id="path28" />
    <path
       d="m 542.8,221.74 a 3.13,3.13 0 1 1 -3.13,-3.13 3.13,3.13 0 0 1 3.13,3.13 z"
       style="fill:#a6a6a6"
       id="path29" />
    <path
       d="m 555.59,221.74 a 3.13,3.13 0 1 1 -3.13,-3.13 3.13,3.13 0 0 1 3.13,3.13 z"
       style="fill:#ebebeb"
       id="path30" />
    <path
       d="m 568.37,221.74 a 3.13,3.13 0 1 1 -3.13,-3.13 3.13,3.13 0 0 1 3.13,3.13 z"
       style="fill:#ffffff"
       id="path31" />
    <rect
       x="96.839996"
       y="222.08"
       width="103.1"
       height="65.769997"
       style="fill:#ffffff"
       id="rect34" />
    <path
       d="M 200.59,288.5 H 96.19 v -67.07 h 104.4 z m -103.1,-1.31 h 101.8 V 222.73 H 97.49 Z"
       style="fill:#ebebeb"
       id="path35" />
    <rect
       x="96.839996"
       y="222.08"
       width="103.1"
       height="12.44"
       style="fill:#ffc727"
       id="rect35" />
    <path
       d="M 200.59,235.17 H 96.19 v -13.74 h 104.4 z m -103.1,-1.31 h 101.8 V 222.73 H 97.49 Z"
       style="fill:#ebebeb"
       id="path36" />
    <path
       d="m 108.52,228.39 a 3.13,3.13 0 1 1 -3.13,-3.13 3.13,3.13 0 0 1 3.13,3.13 z"
       style="fill:#a6a6a6"
       id="path37" />
    <path
       d="m 121.3,228.39 a 3.13,3.13 0 1 1 -3.13,-3.13 3.13,3.13 0 0 1 3.13,3.13 z"
       style="fill:#ebebeb"
       id="path38" />
    <path
       d="m 134.08,228.39 a 3.13,3.13 0 1 1 -3.13,-3.13 3.13,3.13 0 0 1 3.13,3.13 z"
       style="fill:#ffffff"
       id="path39" />
    <rect
       x="263.35999"
       y="63.990002"
       width="223.81"
       height="141.2"
       style="fill:#263238"
       id="rect42" />
    <path
       d="M 487.82,205.84 H 262.71 V 63.34 H 487.82 Z M 264,204.54 H 486.52 V 64.64 H 264 Z"
       style="fill:#ebebeb"
       id="path43" />
    <rect
       x="263.35999"
       y="63.990002"
       width="223.81"
       height="12.44"
       style="fill:#ffc727"
       id="rect43" />
    <path
       d="M 487.82,77.08 H 262.71 V 63.34 H 487.82 Z M 264,75.77 H 486.52 V 64.64 H 264 Z"
       style="fill:#ebebeb"
       id="path44" />
    <path
       d="M 275,70.3 A 3.13,3.13 0 1 1 271.87,67.17 3.13,3.13 0 0 1 275,70.3 Z"
       style="fill:#a6a6a6"
       id="path45" />
    <path
       d="m 287.82,70.3 a 3.13,3.13 0 1 1 -3.13,-3.13 3.13,3.13 0 0 1 3.13,3.13 z"
       style="fill:#ebebeb"
       id="path46" />
    <path
       d="m 300.6,70.3 a 3.13,3.13 0 1 1 -3.13,-3.13 3.13,3.13 0 0 1 3.13,3.13 z"
       style="fill:#ffffff"
       id="path47" />
    <rect
       x="276.70001"
       y="101.17"
       width="6.6500001"
       height="2.4300001"
       style="fill:#ebebeb"
       id="rect47" />
    <rect
       x="288.20001"
       y="101.17"
       width="107.4"
       height="2.4300001"
       style="fill:#ebebeb"
       id="rect48" />
    <rect
       x="399.67999"
       y="101.17"
       width="12.63"
       height="2.4300001"
       style="fill:#ffc727"
       id="rect49" />
    <rect
       x="419.89999"
       y="133.67"
       width="12.63"
       height="2.4300001"
       style="fill:#ebebeb"
       id="rect50" />
    <rect
       x="415.06"
       y="101.17"
       width="42.580002"
       height="2.4300001"
       style="fill:#a6a6a6"
       id="rect51" />
    <rect
       x="283.35001"
       y="107.67"
       width="6.6500001"
       height="2.4300001"
       style="fill:#ebebeb"
       id="rect52" />
    <rect
       x="294.67999"
       y="107.67"
       width="50.060001"
       height="2.4300001"
       style="fill:#a6a6a6"
       id="rect53" />
    <rect
       x="397.95999"
       y="133.67"
       width="18.93"
       height="2.4300001"
       style="fill:#a6a6a6"
       id="rect54" />
    <rect
       x="288.20001"
       y="127.17"
       width="47.810001"
       height="2.4300001"
       style="fill:#a6a6a6"
       id="rect55" />
    <rect
       x="294.67999"
       y="114.17"
       width="33.540001"
       height="2.4300001"
       style="fill:#ffc727"
       id="rect56" />
    <rect
       x="408.13"
       y="120.67"
       width="33.540001"
       height="2.4300001"
       style="fill:#a6a6a6"
       id="rect57" />
    <rect
       x="331.95001"
       y="114.17"
       width="84.68"
       height="2.4300001"
       style="fill:#a6a6a6"
       id="rect58" />
    <rect
       x="288.20001"
       y="133.67"
       width="105.43"
       height="2.4300001"
       style="fill:#ffc727"
       id="rect59" />
    <rect
       x="413.64999"
       y="107.67"
       width="55.400002"
       height="2.4300001"
       style="fill:#ffc727"
       id="rect60" />
    <rect
       x="347.88"
       y="107.67"
       width="63.02"
       height="2.4300001"
       style="fill:#ebebeb"
       id="rect61" />
    <rect
       x="439.89999"
       y="114.17"
       width="21.530001"
       height="2.4300001"
       style="fill:#ebebeb"
       id="rect62" />
    <rect
       x="283.35001"
       y="114.17"
       width="6.6500001"
       height="2.4300001"
       style="fill:#ebebeb"
       id="rect63" />
    <rect
       x="276.70001"
       y="120.67"
       width="6.6500001"
       height="2.4300001"
       style="fill:#a6a6a6"
       id="rect64" />
    <rect
       x="288.20001"
       y="120.67"
       width="39.299999"
       height="2.4300001"
       style="fill:#ebebeb"
       id="rect65" />
    <rect
       x="294.67999"
       y="140.17"
       width="39.299999"
       height="2.4300001"
       style="fill:#ebebeb"
       id="rect66" />
    <rect
       x="399.07999"
       y="146.67"
       width="50.619999"
       height="2.4300001"
       style="fill:#ffc727"
       id="rect67" />
    <rect
       x="337.17001"
       y="140.17"
       width="70.529999"
       height="2.4300001"
       style="fill:#ffc727"
       id="rect68" />
    <rect
       x="330.22"
       y="146.67"
       width="65.43"
       height="2.4300001"
       style="fill:#ebebeb"
       id="rect69" />
    <rect
       x="294.67999"
       y="146.67"
       width="11.38"
       height="2.4300001"
       style="fill:#a6a6a6"
       id="rect70" />
    <rect
       x="338.72"
       y="127.17"
       width="73.599998"
       height="2.4300001"
       style="fill:#ebebeb"
       id="rect71" />
    <rect
       x="415.06"
       y="127.17"
       width="47.77"
       height="2.4300001"
       style="fill:#ffc727"
       id="rect72" />
    <rect
       x="331.48999"
       y="120.67"
       width="73.540001"
       height="2.4300001"
       style="fill:#ffc727"
       id="rect73" />
    <rect
       x="276.70001"
       y="127.17"
       width="6.6500001"
       height="2.4300001"
       style="fill:#ebebeb"
       id="rect74" />
    <rect
       x="276.70001"
       y="133.67"
       width="6.6500001"
       height="2.4300001"
       style="fill:#ebebeb"
       id="rect75" />
    <rect
       x="283.35001"
       y="140.17"
       width="6.6500001"
       height="2.4300001"
       style="fill:#a6a6a6"
       id="rect76" />
    <rect
       x="283.35001"
       y="146.67"
       width="6.6500001"
       height="2.4300001"
       style="fill:#ebebeb"
       id="rect77" />
    <rect
       x="276.70001"
       y="152.11"
       width="6.6500001"
       height="2.4300001"
       style="fill:#ebebeb"
       id="rect78" />
    <rect
       x="288.20001"
       y="152.11"
       width="77.970001"
       height="2.4300001"
       style="fill:#ebebeb"
       id="rect79" />
    <rect
       x="283.35001"
       y="158.61"
       width="6.6500001"
       height="2.4300001"
       style="fill:#ebebeb"
       id="rect80" />
    <rect
       x="294.67999"
       y="158.61"
       width="50.060001"
       height="2.4300001"
       style="fill:#a6a6a6"
       id="rect81" />
    <rect
       x="288.20001"
       y="178.12"
       width="47.810001"
       height="2.4300001"
       style="fill:#a6a6a6"
       id="rect82" />
    <rect
       x="294.67999"
       y="165.11"
       width="33.540001"
       height="2.4300001"
       style="fill:#ffc727"
       id="rect83" />
    <rect
       x="331.95001"
       y="165.11"
       width="84.68"
       height="2.4300001"
       style="fill:#a6a6a6"
       id="rect84" />
    <rect
       x="288.20001"
       y="184.62"
       width="105.43"
       height="2.4300001"
       style="fill:#ffc727"
       id="rect85" />
    <rect
       x="413.64999"
       y="158.61"
       width="55.400002"
       height="2.4300001"
       style="fill:#ffc727"
       id="rect86" />
    <rect
       x="347.88"
       y="158.61"
       width="63.02"
       height="2.4300001"
       style="fill:#ebebeb"
       id="rect87" />
    <rect
       x="439.89999"
       y="165.11"
       width="21.530001"
       height="2.4300001"
       style="fill:#ebebeb"
       id="rect88" />
    <rect
       x="283.35001"
       y="165.11"
       width="6.6500001"
       height="2.4300001"
       style="fill:#ebebeb"
       id="rect89" />
    <rect
       x="276.70001"
       y="171.62"
       width="6.6500001"
       height="2.4300001"
       style="fill:#a6a6a6"
       id="rect90" />
    <rect
       x="288.20001"
       y="171.62"
       width="39.299999"
       height="2.4300001"
       style="fill:#ebebeb"
       id="rect91" />
    <rect
       x="338.72"
       y="178.12"
       width="73.599998"
       height="2.4300001"
       style="fill:#ebebeb"
       id="rect92" />
    <rect
       x="331.48999"
       y="171.62"
       width="73.540001"
       height="2.4300001"
       style="fill:#ffc727"
       id="rect93" />
    <rect
       x="276.70001"
       y="178.12"
       width="6.6500001"
       height="2.4300001"
       style="fill:#ebebeb"
       id="rect94" />
    <path
       d="m 280.81,94.77 a 0.58,0.58 0 0 1 -0.4,1 0.63,0.63 0 0 1 -0.42,-0.17 L 277.43,93 a 0.08,0.08 0 0 1 -0.05,0 v 0 a 0.64,0.64 0 0 0 0,-0.07 c 0,0 0,0 0,-0.06 0,-0.06 0,0 0,0 V 92.8 c 0,0 0,0 0,0 v -0.06 c 0,0 0,0 0,0 a 0.64,0.64 0 0 0 0,-0.07 c 0,0 0,0 0,0 v -0.08 a 0.17,0.17 0 0 1 0.06,-0.06 l 2.56,-2.6 a 0.59,0.59 0 0 1 0.82,0 0.57,0.57 0 0 1 0,0.82 l -2.16,2.18 z"
       style="fill:#ffc727"
       id="path94" />
    <path
       d="m 283.14,95.06 2.23,-5.32 a 0.51,0.51 0 0 1 0.67,-0.26 0.49,0.49 0 0 1 0.25,0.65 l -2.23,5.33 a 0.51,0.51 0 0 1 -0.47,0.3 0.42,0.42 0 0 1 -0.18,0 0.5,0.5 0 0 1 -0.27,-0.7 z"
       style="fill:#ffc727"
       id="path95" />
    <path
       d="m 290.71,92.92 -0.06,0.06 -2.57,2.6 a 0.58,0.58 0 0 1 -0.41,0.17 0.6,0.6 0 0 1 -0.41,-0.17 0.57,0.57 0 0 1 0,-0.82 l 2.16,-2.18 -2.16,-2.18 a 0.57,0.57 0 0 1 0,-0.82 0.59,0.59 0 0 1 0.82,0 l 2.57,2.6 0.06,0.06 c 0,0 0,0 0,0 0,0 0,0 0.05,0.08 0.05,0.08 0,0 0,0 a 0.12,0.12 0 0 0 0,0.08 c 0,0 0,0 0,0 v 0.06 c 0,0 0,0 0,0 0,0 0,0 0,0 v 0.07 c 0,0 0,0 0,0 a 0.13,0.13 0 0 0 0,0.08 c 0,0 0,0 0,0 z"
       style="fill:#ffc727"
       id="path96" />
    <polygon
       points="591.19,299.72 591.19,269.84 612.11,290.97 602.85,292.35 607.24,302.95 602.86,304.77 598.44,294.09 "
       style="fill:#263238"
       id="polygon103" />
    <path
       d="m 591.19,266.59 a 4.25,4.25 0 0 1 -0.26,-1.51 4,4 0 0 1 0.26,-1.5 3.78,3.78 0 0 1 0.27,1.5 4.05,4.05 0 0 1 -0.27,1.51 z"
       style="fill:#263238"
       id="path104" />
    <path
       d="m 588.61,267.66 a 4,4 0 0 1 -1.25,-0.88 3.91,3.91 0 0 1 -0.88,-1.25 4.47,4.47 0 0 1 2.13,2.13 z"
       style="fill:#263238"
       id="path105" />
    <path
       d="m 587.54,270.24 a 4,4 0 0 1 -1.51,0.27 4,4 0 0 1 -1.5,-0.27 4,4 0 0 1 1.47,-0.24 4,4 0 0 1 1.54,0.24 z"
       style="fill:#263238"
       id="path106" />
    <path
       d="m 588.61,272.83 a 4,4 0 0 1 -0.88,1.25 3.74,3.74 0 0 1 -1.25,0.87 3.87,3.87 0 0 1 0.88,-1.24 4,4 0 0 1 1.25,-0.88 z"
       style="fill:#263238"
       id="path107" />
    <path
       d="m 594.85,270.24 a 4.49,4.49 0 0 1 3,0 4.33,4.33 0 0 1 -3,0 z"
       style="fill:#263238"
       id="path108" />
    <path
       d="m 593.78,267.66 a 4.47,4.47 0 0 1 2.13,-2.13 3.91,3.91 0 0 1 -0.88,1.25 4,4 0 0 1 -1.25,0.88 z"
       style="fill:#263238"
       id="path109" />
  </g>
  <g
     id="freepik--character-2--inject-2"
     transform="translate(-31807.5,-25344.997)">
    <path
       d="m 444.34,228.86 c -13.77,11.81 -9.94,29 -15.69,38.36 -3.51,5.7 -15,11.73 -17.24,18.31 -3.74,10.81 5.42,14.69 3.37,20.57 -2.9,8.32 -14,7.68 -16,21.29 -2,13.61 13,28.11 48.53,32 35.53,3.89 55.09,-9.1 56.37,-20.65 1.28,-11.55 -10.56,-15.4 -11.36,-24 -0.52,-5.51 6.79,-9.35 7.16,-19.49 0.37,-10.14 -9.52,-13.45 -10.94,-22.07 -1.42,-8.62 3.15,-29.55 -9.51,-40.24 -12.66,-10.69 -27.9,-9.94 -34.69,-4.08 z"
       style="fill:#263238"
       id="path110" />
    <path
       d="m 445.93,229.17 a 29.33,29.33 0 0 0 -9.14,10.55 64.17,64.17 0 0 0 -5.08,14 38.75,38.75 0 0 1 -2.76,8.37 21.43,21.43 0 0 1 -4.78,5.9 c -3.84,3.47 -8.43,6.12 -11.89,10 -3.27,3.7 -5.82,8.65 -4.51,13.7 0.71,2.74 2.52,5 3.65,7.54 1.13,2.54 1.49,5.45 -0.59,7.46 -1.78,1.72 -4.36,2.51 -6.38,3.93 a 22.32,22.32 0 0 0 -5.19,5 17.39,17.39 0 0 0 -3.26,13.7 c 2.09,11.06 12.47,17.35 22.05,21.32 q 2,0.83 4,1.62 c 0.21,0.08 0.39,-0.22 0.18,-0.31 -9.62,-4.3 -20.78,-9.35 -24.47,-20.1 a 16.21,16.21 0 0 1 1.66,-14.28 20.44,20.44 0 0 1 5.07,-5.34 c 1.94,-1.43 4.17,-2.31 6.14,-3.66 a 6.54,6.54 0 0 0 3,-5.85 c -0.12,-2.59 -1.39,-4.86 -2.64,-7.07 -1.25,-2.21 -2.46,-4.69 -2.27,-7.45 a 14.26,14.26 0 0 1 2.84,-7.1 c 3,-4.24 7.43,-7 11.4,-10.23 3.97,-3.23 7.19,-6.95 8.65,-12 0.74,-2.54 1.2,-5.15 1.83,-7.71 a 69.29,69.29 0 0 1 2.12,-7 33.64,33.64 0 0 1 7.52,-12.39 19.44,19.44 0 0 1 2.94,-2.41 c 0.15,-0.08 0.03,-0.27 -0.09,-0.19 z"
       style="fill:#263238"
       id="path111" />
    <path
       d="m 505.21,330.3 a 13.33,13.33 0 0 0 -2.46,-5.18 c -1.24,-1.57 -2.73,-2.89 -4.1,-4.33 a 10.12,10.12 0 0 1 -2.91,-4.81 c -0.46,-2.27 0.5,-4.45 1.56,-6.4 a 48.38,48.38 0 0 0 3.19,-6.2 22.42,22.42 0 0 0 1.35,-6.63 22.83,22.83 0 0 0 -3.58,-13.22 c -1.21,-2 -2.57,-3.88 -3.8,-5.85 a 28.39,28.39 0 0 1 -3.15,-6.91 c -1.6,-5.35 -1.95,-11 -3.26,-16.43 a 84.62,84.62 0 0 0 -5.77,-16.12 c -0.06,-0.13 -0.25,0 -0.19,0.11 a 74.35,74.35 0 0 1 5.05,14.57 c 1.13,4.76 1.56,9.61 2.4,14.42 a 36.25,36.25 0 0 0 1.81,6.93 37.58,37.58 0 0 0 3.08,5.94 c 2.41,3.92 4.89,7.78 5.55,12.43 a 21.7,21.7 0 0 1 -2.29,13.31 c -1.87,3.54 -4.49,7.43 -2.86,11.57 1.39,3.51 4.73,5.61 6.95,8.51 a 14,14 0 0 1 2.4,11.24 c -1.91,10 -11.89,14.9 -21.23,15.39 a 0.23,0.23 0 0 0 0,0.45 c 8.12,-0.09 17,-3.66 20.77,-11.27 a 17.22,17.22 0 0 0 1.49,-11.52 z"
       style="fill:#263238"
       id="path112" />
    <path
       d="m 456.64,318.68 c 9,35.77 17.91,63.14 28.11,69.83 8.22,5.41 19.77,9.2 31.65,11.86 a 295.55,295.55 0 0 0 38.5,5.5 c 4,0.33 7.3,0.54 9.66,0.71 5.82,0.37 15.36,-38.09 11.23,-42.79 -0.95,-1.07 -4.79,-1.9 -10.17,-2.58 -18.13,-2.28 -53.82,-2.81 -55.95,-4.84 -2.13,-2.03 -20.41,-27.6 -36,-47.62 -10.78,-13.84 -22.02,-9.91 -17.03,9.93 z"
       style="fill:#d3766a"
       id="path113" />
    <path
       d="m 552.87,402.7 c 0.73,0.33 11,4.8 17.32,6.38 4.72,1.18 18.37,4.21 20.18,-0.85 1.24,-3.45 -6.58,-6.18 -12.06,-8.23 -2.89,-1.08 -6.51,-3.93 -5.74,-5.79 1.35,-3.25 8.8,-0.31 13.72,2.31 9.51,5.07 22.28,14.36 27.8,9.42 2.09,-1.86 -0.53,-5 -4.3,-8.08 6.06,3.5 12.5,6.32 14.9,4.33 1.37,-1.12 1.38,-2.61 0.53,-4.26 1.86,0.52 3.47,0.35 4.55,-0.89 1.86,-2.08 0.81,-5 -1.41,-8 a 2.28,2.28 0 0 0 1.7,-1.22 c 3.86,-6.37 -17.23,-23.49 -24.36,-24.9 -21,-4.17 -43,-1.56 -43,-1.56 -7.94,6.83 -9.84,41.32 -9.83,41.34 z"
       style="fill:#d3766a"
       id="path114" />
    <path
       d="m 582.73,382.19 a 33.93,33.93 0 0 1 14.06,4.81 c 5,3.15 9,7.56 13.62,11.16 0.12,0.1 0,0.29 -0.16,0.19 -2.18,-1.87 -4.56,-3.53 -6.82,-5.31 -2.26,-1.78 -4.36,-3.57 -6.68,-5.15 a 33.65,33.65 0 0 0 -14,-5.64 c -0.09,0.02 -0.08,-0.07 -0.02,-0.06 z"
       style="fill:#263238"
       id="path115" />
    <path
       d="m 586.27,373.23 c 5.52,1.29 11.18,2.59 16.34,5 5.66,2.62 10.17,7.07 14.6,11.35 q 4,3.85 7.82,7.89 c 0.1,0.11 0,0.3 -0.16,0.19 Q 618.12,391 611,384.79 a 44.43,44.43 0 0 0 -15.05,-8.73 c -3.17,-1.08 -6.42,-1.91 -9.66,-2.74 -0.09,-0.01 -0.08,-0.11 -0.02,-0.09 z"
       style="fill:#263238"
       id="path116" />
    <path
       d="m 591.83,365.3 c 5.35,0.89 10,1.65 14.82,4.32 6.36,3.54 12.6,9.66 14.79,11.83 2.42,2.4 4.76,4.88 7.06,7.39 0.09,0.11 -0.09,0.27 -0.18,0.17 a 177.75,177.75 0 0 0 -16.79,-15.44 34.9,34.9 0 0 0 -9.27,-5.55 63.24,63.24 0 0 0 -10.44,-2.69 z"
       style="fill:#263238"
       id="path117" />
    <path
       d="m 463.24,354.73 32.14,-19 c 0,0 -13.72,-22.16 -25.44,-32.63 -11.72,-10.47 -16.45,-2.25 -14.67,13 1.78,15.25 7.97,38.63 7.97,38.63 z"
       style="fill:#ffc727"
       id="path118" />
    <path
       d="m 490.32,331 c -5.15,2.64 -18.9,10.2 -27.16,16.34 -0.05,0 0.07,0.26 0.12,0.23 7.67,-4 22.33,-13.16 27.22,-16.25 0.1,-0.09 -0.08,-0.41 -0.18,-0.32 z"
       style="fill:#263238"
       id="path119" />
    <path
       d="m 492.74,337.35 -29.49,17.38 c 0,0 -6.2,-23.42 -8,-38.63 -1.14,-9.81 0.41,-16.71 4.82,-17.55 z"
       style="fill:#263238"
       id="path120" />
    <path
       d="M 494.29,418.64 H 388 c 0,0 23.08,-89.14 44.45,-114.23 0.48,-0.58 1,-1.13 1.46,-1.64 l 0.29,-0.3 a 22.81,22.81 0 0 1 5.71,-4.42 c 0.38,-0.2 0.75,-0.39 1.14,-0.56 8.23,-3.78 16.92,-0.65 23.19,4.72 2,1.7 24.51,31 26.51,42.18 1.72,9.87 -4.94,20.46 -4.94,20.46 z"
       style="fill:#ffc727"
       id="path121" />
    <path
       d="m 469.88,361 a 92.29,92.29 0 0 0 -13.42,2.32 c -2.19,0.58 -4.33,1.26 -6.47,2 -1.07,0.36 -2.14,0.68 -3.22,1 a 14.64,14.64 0 0 1 -3.46,0.69 c -0.1,0 -0.1,0.16 0,0.16 a 24.65,24.65 0 0 0 3.33,-0.09 23.22,23.22 0 0 0 3.18,-0.63 c 2.22,-0.57 4.41,-1.24 6.63,-1.83 4.47,-1.19 8.93,-2.38 13.48,-3.24 0.22,-0.01 0.16,-0.38 -0.05,-0.38 z"
       style="fill:#263238"
       id="path122" />
    <path
       d="m 481.1,365 a 97.89,97.89 0 0 0 -11.23,-0.44 c -1.88,0 -3.74,0.18 -5.6,0.38 q -1.35,0.15 -2.67,0.33 c -1,0.13 -1.94,0.39 -2.92,0.51 a 0.09,0.09 0 0 0 0,0.17 c 0.92,-0.09 1.87,0 2.8,0 l 2.8,-0.1 c 1.87,-0.06 3.74,-0.1 5.61,-0.18 3.74,-0.16 7.47,-0.28 11.21,-0.31 0.21,-0.1 0.2,-0.36 0,-0.36 z"
       style="fill:#263238"
       id="path123" />
    <path
       d="m 426.4,309.58 c -20,28.15 -45.95,77 -32.61,86 21.95,14.76 82.34,18.73 96.14,19.08 5.95,0.15 14.09,-39.46 9.69,-44.06 -4.4,-4.6 -67.62,-2.15 -68.43,-6 -0.46,-2.16 7.28,-22.12 11.2,-46.06 4.53,-27.61 -10.39,-16.9 -15.99,-8.96 z"
       style="fill:#d3766a"
       id="path124" />
    <path
       d="m 489,368.36 c 0,0 18,-1.85 29.88,-2.51 6.61,-0.36 18,0 23,2 7.45,2.92 36.73,19.89 32.77,27.08 -3.59,6.51 -26.89,-11.27 -26.89,-11.27 0,0 25.1,15.86 19.34,22.9 -5.76,7.04 -29.43,-16.56 -29.43,-16.56 0,0 25.43,16.86 18.33,23.18 -5.35,4.78 -28,-15.37 -28,-15.37 0,0 21.76,14.65 16.46,19.8 -5.85,5.69 -27.91,-11.6 -27.91,-11.6 -15.67,10.83 -27.56,9.57 -35.91,7.67 -2,-0.46 8.36,-45.32 8.36,-45.32 z"
       style="fill:#d3766a"
       id="path125" />
    <path
       d="m 539.41,377.59 c 3,1.76 6.09,3.52 8.94,5.53 2.85,2.01 5.63,4.14 8.28,6.41 a 59.36,59.36 0 0 1 9.46,9.83 c -5.38,-6.08 -15.47,-13.46 -18.32,-15.47 -2.85,-2.01 -5.59,-4.17 -8.44,-6.19 -0.07,-0.05 0.01,-0.15 0.08,-0.11 z"
       style="fill:#263238"
       id="path126" />
    <path
       d="m 531.94,387.75 c 3.76,2.41 7.57,4.66 11.22,7.24 3.65,2.58 8.6,6.33 12.05,9.13 0.26,0.22 0.06,0.69 -0.21,0.48 -3.56,-2.66 -8.8,-6.27 -12.39,-8.89 -3.59,-2.62 -7.07,-5.39 -10.73,-7.87 -0.06,-0.04 0,-0.12 0.06,-0.09 z"
       style="fill:#263238"
       id="path127" />
    <path
       d="m 524,395.32 c 5.93,3.38 11.22,7.86 16.31,12.38 0.25,0.22 0,0.28 -0.29,0.07 -5.35,-4.22 -9.51,-7.56 -16.14,-12.25 -0.14,-0.07 -0.04,-0.27 0.12,-0.2 z"
       style="fill:#263238"
       id="path128" />
    <path
       d="m 486.42,368 c 8.23,-0.84 32.4,-3.2 40.67,-3.35 7.29,-0.13 13.46,0.86 19.94,4.32 13.91,7.4 23.3,16.76 25.68,19.59 1.45,1.71 3.57,4.45 2.08,6.64 -1.82,2.67 -9.64,1 -18.33,-5.5 -0.32,-0.24 -0.15,-0.42 0.17,-0.21 12.1,8 16.48,6.57 17.5,4.9 0.66,-1.09 -0.23,-2.76 -1,-4 a 25.53,25.53 0 0 0 -4.49,-4.91 111.1,111.1 0 0 0 -18.42,-13.29 43.72,43.72 0 0 0 -23.55,-6.38 c -8.47,0.11 -31.74,2.55 -40.21,2.53 -0.22,0.01 -0.22,-0.28 -0.04,-0.34 z"
       style="fill:#263238"
       id="path129" />
    <path
       d="m 568.09,402.79 c -0.68,-2.21 -2.5,-4.1 -4,-5.84 a 41.9,41.9 0 0 0 -5.95,-6 0.1,0.1 0 0 0 -0.14,0.14 65.88,65.88 0 0 1 5.3,5.78 33.83,33.83 0 0 1 2.44,3.51 c 0.72,1.16 1.55,2.52 1.37,3.95 -0.33,2.73 -3.73,3 -5.81,2.45 a 23.12,23.12 0 0 1 -3.92,-1.46 37.81,37.81 0 0 1 -4.92,-3 c -0.13,-0.1 -0.45,0 -0.31,0.08 3.27,2.58 9.51,8 13.93,5.35 a 4.2,4.2 0 0 0 2.01,-4.96 z"
       style="fill:#263238"
       id="path130" />
    <path
       d="m 401.46,338.91 35.1,12.64 c 0,0 8.31,-24.7 8.88,-40.41 0.57,-15.71 -8.76,-14.1 -19.33,-3 -10.57,11.1 -24.65,30.77 -24.65,30.77 z"
       style="fill:#ffc727"
       id="path131" />
    <path
       d="m 437,344.58 c -5.31,-2.28 -19.91,-8 -29.92,-10.48 -0.06,0 -0.14,0.21 -0.09,0.24 8,3.34 24.38,8.79 29.88,10.59 0.13,0.07 0.27,-0.31 0.13,-0.35 z"
       style="fill:#263238"
       id="path132" />
    <path
       d="m 443.83,331.28 c 0,0 -0.07,-0.08 -0.09,0 -0.63,1.21 -1.19,2.44 -1.73,3.69 0.61,-2.74 1.16,-5.5 1.64,-8.25 a 0.08,0.08 0 1 0 -0.15,0 c -2.35,8.09 -4.91,16.14 -7.09,24.29 -0.9,-0.05 -1.8,-0.11 -2.69,-0.23 a 0.12,0.12 0 0 0 0,0.24 c 1,0.23 1.92,0.54 2.86,0.86 0.22,0.07 0.52,0.05 0.61,-0.2 a 119.09,119.09 0 0 0 4.28,-14.16 c 0.37,-0.73 0.73,-1.46 1,-2.22 a 28.91,28.91 0 0 0 1.36,-4.02 z"
       style="fill:#263238"
       id="path133" />
    <path
       d="m 450.21,294.21 c -8,1.47 -8,10.28 -5.76,16.69 2.24,6.41 7.29,14.09 11.47,14.29 4.18,0.2 6,-10.16 6,-10.16 0,0 5.28,7.07 8.6,5.12 3.32,-1.95 -1.72,-14.48 -5.78,-18.62 -5.91,-6.01 -10.3,-8.1 -14.53,-7.32 z"
       style="fill:#ffffff"
       id="path134" />
    <path
       d="m 445.47,298.73 c 0.17,1.9 7.23,15.09 15.69,15.9 2.76,0.26 4.84,-14.72 4.84,-14.72 l 0.41,-1.07 5.68,-15 -16.51,-14.28 -2.41,-1.93 c 0,0 -1.28,4.21 -2.83,9.46 -0.08,0.24 -0.15,0.48 -0.22,0.74 -0.07,0.26 -0.19,0.58 -0.27,0.86 -0.24,0.78 -0.48,1.58 -0.71,2.38 -0.17,0.6 -0.34,1.2 -0.5,1.84 -0.16,0.64 -0.34,1.27 -0.51,1.92 a 102,102 0 0 0 -2.66,13.9 z"
       style="fill:#d3766a"
       id="path135" />
    <path
       d="m 450.34,277.11 a 32.13,32.13 0 0 0 16.07,21.73 l 5.68,-15 -16.51,-14.28 -2.41,-1.93 c 0,0 -1.28,4.23 -2.83,9.48 z"
       style="fill:#263238"
       id="path136" />
    <path
       d="m 496.72,262.13 c -1.45,28.1 -18.44,30.4 -24.5,30.08 -5.49,-0.29 -24.18,-2 -25.64,-30.07 -1.46,-28.07 12.06,-36.3 24.67,-36.3 12.61,0 26.92,8.16 25.47,36.29 z"
       style="fill:#d3766a"
       id="path137" />
    <path
       d="m 493,257.08 c -0.65,-0.13 -1.23,-0.35 -1.87,-0.54 a 3.16,3.16 0 0 1 -1.79,-0.92 1,1 0 0 1 0.09,-1.22 2.48,2.48 0 0 1 2.48,-0.39 3.66,3.66 0 0 1 2.19,1.45 1.07,1.07 0 0 1 -1.1,1.62 z"
       style="fill:#263238"
       id="path138" />
    <path
       d="m 475,255.88 c 0.66,0 1.27,-0.17 1.92,-0.26 a 3.19,3.19 0 0 0 1.92,-0.64 1,1 0 0 0 0.08,-1.22 2.47,2.47 0 0 0 -2.39,-0.76 3.65,3.65 0 0 0 -2.38,1.12 1.07,1.07 0 0 0 0.85,1.76 z"
       style="fill:#263238"
       id="path139" />
    <path
       d="m 477.89,262.83 c 0,-0.08 -0.15,0.08 -0.15,0.16 0,1.92 -0.4,4.1 -2.16,4.65 -0.06,0 -0.06,0.12 0,0.11 2.13,-0.19 2.59,-3.1 2.31,-4.92 z"
       style="fill:#263238"
       id="path140" />
    <path
       d="m 476.29,260.74 c -3.07,-0.38 -3.62,5.77 -0.78,6.13 2.84,0.36 3.35,-5.8 0.78,-6.13 z"
       style="fill:#263238"
       id="path141" />
    <path
       d="m 475.05,261 c -0.57,0.3 -1.15,0.87 -1.81,0.88 -0.66,0.01 -1.26,-0.69 -1.7,-1.36 0,-0.07 -0.1,0 -0.11,0.06 -0.12,1.18 0.22,2.43 1.47,2.72 1.25,0.29 2.06,-0.7 2.46,-1.86 0.08,-0.26 -0.08,-0.6 -0.31,-0.44 z"
       style="fill:#263238"
       id="path142" />
    <path
       d="m 488.35,263.36 c 0,-0.07 0.15,0.1 0.14,0.18 -0.25,1.9 -0.21,4.12 1.45,4.92 0.05,0 0,0.12 0,0.11 -2.1,-0.51 -2.12,-3.45 -1.59,-5.21 z"
       style="fill:#263238"
       id="path143" />
    <path
       d="m 490.25,261.53 c 3.09,0.07 2.73,6.24 -0.13,6.18 -2.86,-0.06 -2.46,-6.23 0.13,-6.18 z"
       style="fill:#263238"
       id="path144" />
    <path
       d="m 491.51,262 c 0.47,0.36 0.92,1 1.5,1.05 0.58,0.05 1.21,-0.55 1.68,-1.17 0.05,-0.06 0.1,0 0.09,0.08 0,1.18 -0.49,2.38 -1.64,2.54 -1.15,0.16 -1.75,-0.91 -2,-2.1 0,-0.21 0.19,-0.53 0.37,-0.4 z"
       style="fill:#263238"
       id="path145" />
    <path
       d="m 476.47,277.53 c 0.4,0.51 0.77,1.18 1.45,1.33 a 5,5 0 0 0 2.1,-0.2 c 0.07,0 0.12,0.06 0.07,0.11 a 2.57,2.57 0 0 1 -2.55,0.7 2,2 0 0 1 -1.26,-1.88 c -0.02,-0.11 0.14,-0.13 0.19,-0.06 z"
       style="fill:#263238"
       id="path146" />
    <path
       d="m 484.61,272.17 c 0,0 0.18,2.88 0.07,4.23 0,0.12 -5,0.75 -6.88,-2.72 a 0.15,0.15 0 0 1 0.22,-0.18 9.66,9.66 0 0 0 5.71,2.13 c 0.12,-0.36 -0.46,-4.93 -0.25,-4.93 a 12.07,12.07 0 0 1 3,0.93 c -0.18,-6 -1.33,-11.95 -1.42,-17.94 a 0.18,0.18 0 0 1 0.35,-0.06 c 1.65,6.14 2,13.05 2.36,19.26 0.06,0.78 -2.64,-0.45 -3.16,-0.72 z"
       style="fill:#263238"
       id="path147" />
    <path
       d="m 448.6,263.28 c 6.87,0.67 11.64,-20.1 12.19,-22.66 -0.26,1.63 -1.65,10.26 -1,10.69 a 7,7 0 0 0 2.2,-0.12 v 0 a 20.14,20.14 0 0 1 0.66,-3.07 c 0.12,-0.47 0,1.07 0.05,3 0.41,-0.05 0.84,-0.13 1.31,-0.18 a 25.37,25.37 0 0 1 1.53,-6.5 c 0.3,-0.79 0,2.92 0.4,6.24 4.89,-0.65 11.92,-1.42 18.33,-0.79 1.71,0.16 3.18,0.37 4.48,0.61 0.34,-2.56 0.41,-5.32 0.52,-4.71 a 24.35,24.35 0 0 1 0.44,4.89 c 0.7,0.14 1.35,0.27 1.93,0.41 0.65,-3.59 -0.31,-9.58 0.16,-8.62 a 25.78,25.78 0 0 1 2.31,9.35 c 2.4,0.8 3,1.37 3.17,0.74 0.27,-1.13 0.19,-11.42 -6.7,-19.87 -7.49,-9.18 -24.28,-13.46 -35.54,-2.33 0,0 -8.6,4.13 -10.95,12.29 -2.35,8.16 0.53,20.25 4.51,20.63 z"
       style="fill:#263238"
       id="path148" />
    <path
       d="m 451.13,262.44 c 0,0 -4.87,-9.55 -9.12,-7.93 -4.25,1.62 -1.42,14.87 3,17.23 a 4.76,4.76 0 0 0 6.67,-1.65 z"
       style="fill:#d3766a"
       id="path149" />
    <path
       d="m 442.92,258.29 c -0.08,0 -0.11,0.08 0,0.12 3.06,1.77 4.35,5 5.12,8.31 -0.8,-1.34 -2,-2.18 -3.8,-1.26 -0.09,0.05 0,0.2 0.07,0.19 a 2.92,2.92 0 0 1 3.05,1.46 14.3,14.3 0 0 1 1.17,2.79 c 0.11,0.31 0.65,0.23 0.59,-0.12 0,0 0,-0.06 0,-0.08 0.6,-4.13 -1.81,-10.38 -6.2,-11.41 z"
       style="fill:#263238"
       id="path150" />
  </g>
  <g
     id="freepik--character-1--inject-2"
     transform="translate(-31807.5,-25344.997)">
    <path
       d="m 288.87,306.82 c -7.12,31 -21.55,70.33 -32.69,78.26 -9,6.39 -56.16,17.66 -58.79,17.94 -6.51,0.66 -19.37,-45.34 -12.62,-47.21 8.51,-2.35 48.93,-3.61 51.23,-6 2.3,-2.39 17.09,-22.39 33.74,-45.46 11.5,-15.92 23.56,-16.79 19.13,2.47 z"
       style="fill:#ad6359"
       id="path151" />
    <path
       d="m 202.62,400.49 c -0.78,0.4 -11.79,5.93 -18.6,7.91 -5.08,1.47 -19.82,5.32 -22,-0.11 -1.49,-3.71 6.91,-7 12.8,-9.44 3.1,-1.3 6.92,-4.54 6,-6.54 -1.6,-3.48 -9.59,0 -14.84,3.07 -10.15,5.9 -23.68,16.52 -29.89,11.37 -2.34,-1.95 0.38,-5.5 4.37,-9 -6.47,4.05 -13.36,7.37 -16,5.31 -1.54,-1.17 -1.61,-2.78 -0.75,-4.62 -2,0.65 -3.76,0.52 -5,-0.78 -2.1,-2.2 -1.08,-5.44 1.22,-8.77 a 2.51,2.51 0 0 1 -1.91,-1.25 c -4.45,-6.79 17.82,-26.26 25.52,-28.08 22.66,-5.39 46.76,-3.43 46.76,-3.43 8.88,7.14 12.34,44.35 12.32,44.36 z"
       style="fill:#ad6359"
       id="path152" />
    <path
       d="m 169.3,379.64 a 38.45,38.45 0 0 0 -15.11,5.81 c -5.74,3.79 -9.56,8.23 -14.37,12.7 -0.13,0.12 0.05,0.32 0.17,0.2 2.3,-2.12 11.82,-10.11 14.27,-11.93 a 36.64,36.64 0 0 1 15.06,-6.69 c 0.06,-0.01 0.04,-0.1 -0.02,-0.09 z"
       style="fill:#263238"
       id="path153" />
    <path
       d="m 165.08,370 c -6,1.63 -12.06,3.28 -17.58,6.09 -6.05,3.08 -10.79,8.11 -15.44,12.95 -2.79,2.9 -5.53,5.86 -8.19,8.89 -0.11,0.13 0.06,0.33 0.18,0.2 q 7.08,-7.48 14.61,-14.55 a 48.51,48.51 0 0 1 16,-10.11 c 3.41,-1.3 6.91,-2.33 10.4,-3.36 0.11,0 0.09,-0.11 0.02,-0.11 z"
       style="fill:#263238"
       id="path154" />
    <path
       d="m 158.72,361.61 c -5.79,1.19 -10.84,2.21 -16,5.31 -6.78,4.1 -13.33,11 -15.63,13.47 -2.53,2.71 -5,5.5 -7.38,8.33 -0.1,0.11 0.1,0.28 0.2,0.17 a 192.84,192.84 0 0 1 17.65,-17.48 38.44,38.44 0 0 1 9.87,-6.42 68.71,68.71 0 0 1 11.26,-3.34 c 0,0 0.05,-0.04 0.03,-0.04 z"
       style="fill:#263238"
       id="path155" />
    <path
       d="m 236.34,345.32 43.47,-1.85 c 0,0 7.9,-21.54 10.8,-40.66 2.9,-19.12 -13.39,-12.26 -29.52,8.34 -16.13,20.6 -24.75,34.17 -24.75,34.17 z"
       style="fill:#a6a6a6"
       id="path156" />
    <path
       d="m 281.3,334 c -9.4,-0.24 -18.84,0.17 -28.24,0.78 -2.65,0.17 -5.31,0.4 -8,0.69 -0.07,0 -0.08,0.12 0,0.12 4.69,0 9.39,-0.15 14.09,-0.29 4.7,-0.14 9.43,-0.33 14.13,-0.61 2.66,-0.15 5.32,-0.3 8,-0.52 0.12,0.04 0.13,-0.17 0.02,-0.17 z"
       style="fill:#263238"
       id="path157" />
    <path
       d="m 267.55,306 a 1.65,1.65 0 0 1 -0.69,0.34 1.39,1.39 0 0 1 -1.29,-0.39 l -0.07,-0.06 -0.48,0.55 v 0 a 1.81,1.81 0 0 0 2,0.41 1.57,1.57 0 0 0 0.77,-0.63 7.66,7.66 0 0 0 0.5,-0.76 c -0.29,0.16 -0.49,0.35 -0.74,0.54 z m 9.58,33.92 c -0.06,-0.3 -0.09,-0.59 -0.18,-0.89 -0.08,0.3 -0.12,0.59 -0.17,0.89 a 2.21,2.21 0 0 1 -0.23,0.75 1.36,1.36 0 0 1 -1.15,0.67 1.83,1.83 0 0 0 -1.69,1.1 1.76,1.76 0 0 0 -0.1,1 l 0.06,0.32 h 0.24 c 0,-0.1 0,-0.21 0,-0.31 a 2,2 0 0 1 0.25,-0.74 1.42,1.42 0 0 1 1.2,-0.63 1.83,1.83 0 0 0 1.66,-1.16 1.89,1.89 0 0 0 0.11,-1.03 z m -11.72,-17.48 c -0.07,-0.29 -0.11,-0.59 -0.19,-0.88 -0.07,0.29 -0.11,0.59 -0.18,0.88 a 1.84,1.84 0 0 1 -0.21,0.75 1.39,1.39 0 0 1 -1.17,0.67 1.83,1.83 0 0 0 -1.68,1.11 1.81,1.81 0 0 0 -0.1,1 c 0.06,0.29 0.1,0.59 0.19,0.88 0.08,-0.29 0.11,-0.59 0.17,-0.88 a 1.62,1.62 0 0 1 0.25,-0.73 1.38,1.38 0 0 1 1.19,-0.64 1.79,1.79 0 0 0 1.73,-2.15 z M 257.6,340 a 1.58,1.58 0 0 1 -0.68,0.37 1.38,1.38 0 0 1 -1.3,-0.34 1.81,1.81 0 0 0 -2,-0.42 1.88,1.88 0 0 0 -0.77,0.64 c -0.16,0.26 -0.35,0.48 -0.49,0.75 0.27,-0.15 0.49,-0.33 0.74,-0.49 a 1.71,1.71 0 0 1 0.7,-0.35 1.4,1.4 0 0 1 1.29,0.4 1.81,1.81 0 0 0 2,0.34 1.7,1.7 0 0 0 0.73,-0.64 c 0.17,-0.26 0.36,-0.49 0.51,-0.76 -0.24,0.19 -0.48,0.36 -0.73,0.5 z m 23.45,-13.22 a 1.8,1.8 0 0 1 -0.68,0.38 1.35,1.35 0 0 1 -1.29,-0.35 1.83,1.83 0 0 0 -2,-0.4 1.66,1.66 0 0 0 -0.77,0.63 c -0.17,0.25 -0.34,0.48 -0.5,0.75 0.27,-0.15 0.51,-0.33 0.76,-0.5 a 1.61,1.61 0 0 1 0.68,-0.34 1.38,1.38 0 0 1 1.3,0.39 1.78,1.78 0 0 0 2,0.34 1.76,1.76 0 0 0 0.75,-0.64 c 0.17,-0.25 0.35,-0.49 0.5,-0.76 -0.26,0.19 -0.49,0.37 -0.75,0.53 z m 2.42,-14.13 a 1.41,1.41 0 0 1 -0.73,-0.25 1.37,1.37 0 0 1 -0.64,-1.18 1.76,1.76 0 0 0 -2.15,-1.72 6.87,6.87 0 0 0 -0.88,0.18 c 0.29,0.08 0.59,0.11 0.88,0.17 a 1.7,1.7 0 0 1 0.75,0.23 1.38,1.38 0 0 1 0.67,1.15 1.84,1.84 0 0 0 1.11,1.69 1.8,1.8 0 0 0 1,0.1 c 0.29,-0.07 0.59,-0.11 0.88,-0.19 -0.3,-0.05 -0.6,-0.08 -0.89,-0.15 z m -35.13,19.17 a 1.62,1.62 0 0 1 -0.73,-0.25 1.35,1.35 0 0 1 -0.63,-1.19 1.25,1.25 0 0 0 -0.07,-0.43 l -0.61,0.85 v 0 a 1.76,1.76 0 0 0 1.06,1.27 1.6,1.6 0 0 0 1,0.1 c 0.3,-0.07 0.59,-0.1 0.89,-0.18 -0.32,0.01 -0.61,-0.07 -0.91,-0.14 z m 33.28,-39.23 c 0,0.13 0,0.27 0.07,0.4 a 1.79,1.79 0 0 1 -0.06,1 1.81,1.81 0 0 1 -1.66,1.16 1.41,1.41 0 0 0 -1.19,0.63 1.54,1.54 0 0 0 -0.24,0.74 c -0.06,0.29 -0.1,0.59 -0.19,0.88 -0.08,-0.29 -0.11,-0.59 -0.17,-0.88 a 1.71,1.71 0 0 1 0.09,-1 1.8,1.8 0 0 1 1.69,-1.1 1.36,1.36 0 0 0 1.15,-0.68 1.55,1.55 0 0 0 0.23,-0.75 2.68,2.68 0 0 0 0.05,-0.3 z"
       style="fill:#dbdbdb"
       id="path158" />
    <path
       d="m 247.34,418.76 h 111 c 1.22,-2.25 -17,-99.44 -54.38,-126.8 -8.3,-6.07 -23,-2.17 -27.13,3.73 -20.64,29.68 -29.49,123.07 -29.49,123.07 z"
       style="fill:#a6a6a6"
       id="path159" />
    <path
       d="m 294.39,336.29 c 0.3,-0.08 0.59,-0.12 0.89,-0.18 a 1.76,1.76 0 0 1 1,0.07 1.8,1.8 0 0 1 1.17,1.65 1.39,1.39 0 0 0 0.63,1.19 1.59,1.59 0 0 0 0.74,0.25 c 0.29,0.06 0.59,0.1 0.88,0.18 -0.29,0.08 -0.59,0.12 -0.88,0.18 a 1.71,1.71 0 0 1 -1,-0.1 1.83,1.83 0 0 1 -1.11,-1.68 1.4,1.4 0 0 0 -0.67,-1.16 1.7,1.7 0 0 0 -0.75,-0.22 c -0.29,-0.06 -0.6,-0.1 -0.9,-0.18 z M 311.63,395 a 1.84,1.84 0 0 1 0.75,0.23 1.36,1.36 0 0 1 0.67,1.15 1.83,1.83 0 0 0 1.11,1.69 1.8,1.8 0 0 0 1,0.1 c 0.29,-0.06 0.59,-0.1 0.88,-0.18 -0.29,-0.09 -0.59,-0.12 -0.88,-0.18 a 1.62,1.62 0 0 1 -0.73,-0.25 1.38,1.38 0 0 1 -0.64,-1.19 1.82,1.82 0 0 0 -1.16,-1.66 1.78,1.78 0 0 0 -1,-0.06 c -0.29,0.06 -0.59,0.09 -0.88,0.18 0.25,0.03 0.59,0.06 0.88,0.17 z M 332,339.63 a 1.66,1.66 0 0 1 0.75,0.22 1.38,1.38 0 0 1 0.67,1.16 1.83,1.83 0 0 0 1.11,1.68 1.72,1.72 0 0 0 1,0.1 c 0.29,-0.06 0.59,-0.1 0.88,-0.18 -0.29,-0.08 -0.59,-0.12 -0.88,-0.18 a 1.51,1.51 0 0 1 -0.73,-0.25 1.37,1.37 0 0 1 -0.64,-1.19 1.78,1.78 0 0 0 -2.15,-1.72 c -0.29,0.06 -0.59,0.1 -0.88,0.18 0.26,0.08 0.56,0.12 0.87,0.18 z m -52,-29.75 a 1.84,1.84 0 0 1 0.75,0.23 1.35,1.35 0 0 1 0.67,1.15 1.83,1.83 0 0 0 1.11,1.69 1.7,1.7 0 0 0 1,0.09 c 0.29,-0.06 0.59,-0.09 0.88,-0.18 -0.29,-0.08 -0.59,-0.11 -0.88,-0.18 a 1.62,1.62 0 0 1 -0.73,-0.24 1.4,1.4 0 0 1 -0.64,-1.19 1.8,1.8 0 0 0 -1.16,-1.66 1.89,1.89 0 0 0 -1,-0.07 c -0.29,0.06 -0.59,0.1 -0.88,0.18 0.24,0.09 0.54,0.12 0.88,0.18 z m 32,-0.67 a 1.84,1.84 0 0 1 0.75,0.23 1.37,1.37 0 0 1 0.67,1.15 1.81,1.81 0 0 0 1.11,1.69 1.67,1.67 0 0 0 1,0.09 c 0.3,-0.06 0.59,-0.09 0.89,-0.18 -0.3,-0.08 -0.59,-0.12 -0.89,-0.18 a 1.62,1.62 0 0 1 -0.73,-0.24 1.41,1.41 0 0 1 -0.63,-1.19 1.81,1.81 0 0 0 -1.17,-1.66 1.85,1.85 0 0 0 -1,-0.07 c -0.3,0.06 -0.59,0.1 -0.89,0.18 0.28,0.08 0.57,0.12 0.89,0.18 z m -39.89,51.73 a 1.7,1.7 0 0 1 0.75,0.22 1.4,1.4 0 0 1 0.67,1.16 1.85,1.85 0 0 0 1.11,1.69 1.67,1.67 0 0 0 1,0.09 c 0.3,-0.06 0.6,-0.1 0.89,-0.18 -0.29,-0.08 -0.59,-0.12 -0.89,-0.18 a 1.7,1.7 0 0 1 -0.73,-0.24 1.41,1.41 0 0 1 -0.63,-1.19 1.81,1.81 0 0 0 -1.17,-1.66 1.85,1.85 0 0 0 -1,-0.07 c -0.3,0.06 -0.59,0.1 -0.89,0.18 0.28,0.08 0.57,0.12 0.87,0.18 z M 307,414.53 a 1.65,1.65 0 0 1 0.74,0.22 1.39,1.39 0 0 1 0.68,1.16 1.83,1.83 0 0 0 1.1,1.69 1.71,1.71 0 0 0 1,0.09 c 0.3,-0.06 0.59,-0.1 0.89,-0.18 -0.3,-0.08 -0.59,-0.12 -0.89,-0.18 a 1.62,1.62 0 0 1 -0.73,-0.24 1.39,1.39 0 0 1 -0.63,-1.19 1.81,1.81 0 0 0 -1.17,-1.66 1.86,1.86 0 0 0 -1,-0.07 c -0.3,0.06 -0.59,0.1 -0.89,0.18 0.33,0.08 0.62,0.12 0.9,0.18 z m -17.2,-28.8 a 1.84,1.84 0 0 1 0.75,0.23 1.38,1.38 0 0 1 0.67,1.15 1.83,1.83 0 0 0 1.11,1.69 1.76,1.76 0 0 0 1,0.1 c 0.3,-0.07 0.6,-0.1 0.89,-0.18 a 8.76,8.76 0 0 0 -0.89,-0.18 1.62,1.62 0 0 1 -0.73,-0.25 1.4,1.4 0 0 1 -0.63,-1.19 1.82,1.82 0 0 0 -1.17,-1.66 1.75,1.75 0 0 0 -1,-0.06 c -0.3,0.06 -0.59,0.09 -0.89,0.18 0.32,0.08 0.61,0.11 0.91,0.17 z m -39.38,29.52 a 1.71,1.71 0 0 1 -0.73,-0.25 1.39,1.39 0 0 1 -0.63,-1.19 1.79,1.79 0 0 0 -1.05,-1.6 c 0,0.24 -0.05,0.46 -0.07,0.68 a 1.33,1.33 0 0 1 0.39,0.94 1.83,1.83 0 0 0 1.1,1.68 1.65,1.65 0 0 0 1,0.1 c 0.3,-0.06 0.59,-0.1 0.89,-0.18 -0.32,-0.09 -0.58,-0.12 -0.88,-0.18 z M 258,391 a 1.61,1.61 0 0 1 0.74,0.22 1.37,1.37 0 0 1 0.68,1.16 1.77,1.77 0 0 0 2.09,1.78 c 0.3,-0.06 0.59,-0.1 0.89,-0.18 -0.3,-0.08 -0.59,-0.12 -0.89,-0.18 a 1.62,1.62 0 0 1 -0.73,-0.25 1.38,1.38 0 0 1 -0.63,-1.19 1.83,1.83 0 0 0 -1.17,-1.66 1.85,1.85 0 0 0 -1,-0.06 c -0.3,0.06 -0.59,0.09 -0.89,0.18 0.33,0.05 0.62,0.09 0.91,0.18 z m 46.45,-29.33 a 1.79,1.79 0 0 1 0.75,0.23 1.36,1.36 0 0 1 0.67,1.15 1.83,1.83 0 0 0 1.11,1.69 1.81,1.81 0 0 0 1,0.1 c 0.29,-0.07 0.59,-0.1 0.88,-0.18 -0.29,-0.09 -0.59,-0.12 -0.88,-0.18 a 1.62,1.62 0 0 1 -0.73,-0.25 1.38,1.38 0 0 1 -0.64,-1.19 1.81,1.81 0 0 0 -1.16,-1.66 1.78,1.78 0 0 0 -1,-0.06 c -0.29,0.06 -0.59,0.09 -0.88,0.18 0.3,0.05 0.6,0.08 0.89,0.14 z m 40.69,39.43 a 1.75,1.75 0 0 1 0.74,0.23 1.36,1.36 0 0 1 0.68,1.15 1.81,1.81 0 0 0 1.1,1.69 1.71,1.71 0 0 0 1,0.09 c 0.3,-0.06 0.59,-0.09 0.89,-0.18 -0.3,-0.08 -0.59,-0.12 -0.89,-0.18 a 1.62,1.62 0 0 1 -0.73,-0.24 1.39,1.39 0 0 1 -0.63,-1.19 1.81,1.81 0 0 0 -1.17,-1.66 1.86,1.86 0 0 0 -1,-0.07 c -0.3,0.06 -0.59,0.1 -0.89,0.18 0.32,0.08 0.61,0.08 0.91,0.15 z M 329,377 a 1.75,1.75 0 0 1 0.74,0.23 1.37,1.37 0 0 1 0.68,1.15 1.81,1.81 0 0 0 1.1,1.69 1.71,1.71 0 0 0 1,0.09 c 0.3,-0.06 0.59,-0.09 0.89,-0.17 -0.3,-0.09 -0.59,-0.12 -0.89,-0.18 a 1.62,1.62 0 0 1 -0.73,-0.25 1.38,1.38 0 0 1 -0.63,-1.19 1.82,1.82 0 0 0 -1.17,-1.66 1.75,1.75 0 0 0 -1,-0.06 c -0.3,0.06 -0.59,0.09 -0.89,0.17 0.31,0.09 0.6,0.12 0.9,0.18 z m -47.95,-50.18 a 1.73,1.73 0 0 1 -0.68,0.36 1.34,1.34 0 0 1 -1.29,-0.34 1.85,1.85 0 0 0 -2,-0.41 1.81,1.81 0 0 0 -0.77,0.64 c -0.16,0.25 -0.35,0.48 -0.5,0.75 0.27,-0.15 0.51,-0.33 0.76,-0.5 a 1.49,1.49 0 0 1 0.69,-0.34 1.37,1.37 0 0 1 1.29,0.39 1.8,1.8 0 0 0 2,0.35 1.85,1.85 0 0 0 0.75,-0.65 c 0.16,-0.25 0.35,-0.49 0.5,-0.75 -0.26,0.15 -0.49,0.33 -0.75,0.5 z m 47.81,34.39 a 1.67,1.67 0 0 1 -0.69,0.37 1.34,1.34 0 0 1 -1.29,-0.34 1.82,1.82 0 0 0 -2,-0.41 1.77,1.77 0 0 0 -0.76,0.63 c -0.17,0.26 -0.35,0.49 -0.5,0.76 0.27,-0.15 0.5,-0.34 0.75,-0.5 a 1.74,1.74 0 0 1 0.69,-0.35 1.4,1.4 0 0 1 1.29,0.4 1.84,1.84 0 0 0 2,0.35 1.76,1.76 0 0 0 0.74,-0.65 c 0.17,-0.25 0.35,-0.49 0.5,-0.76 -0.25,0.15 -0.48,0.34 -0.73,0.5 z m -29.83,-64 a 1.67,1.67 0 0 1 -0.69,0.37 1.37,1.37 0 0 1 -1.29,-0.34 1.82,1.82 0 0 0 -2,-0.41 1.7,1.7 0 0 0 -0.76,0.63 c -0.17,0.25 -0.35,0.49 -0.5,0.75 0.26,-0.15 0.5,-0.33 0.75,-0.5 a 1.78,1.78 0 0 1 0.69,-0.34 1.4,1.4 0 0 1 1.29,0.4 1.78,1.78 0 0 0 2.74,-0.31 c 0.17,-0.25 0.35,-0.48 0.5,-0.75 -0.25,0.11 -0.48,0.29 -0.76,0.46 z m -0.59,19 a 1.84,1.84 0 0 1 -0.23,0.75 1.37,1.37 0 0 1 -1.15,0.67 1.83,1.83 0 0 0 -1.69,1.11 1.68,1.68 0 0 0 -0.09,1 8.76,8.76 0 0 0 0.18,0.89 c 0.08,-0.29 0.12,-0.59 0.18,-0.89 a 1.7,1.7 0 0 1 0.24,-0.73 1.41,1.41 0 0 1 1.19,-0.63 1.81,1.81 0 0 0 1.66,-1.17 1.85,1.85 0 0 0 0.07,-1 c -0.06,-0.3 -0.1,-0.59 -0.18,-0.89 -0.08,0.23 -0.12,0.52 -0.18,0.82 z m -7,52 a 1.79,1.79 0 0 1 -0.23,0.75 1.33,1.33 0 0 1 -1.15,0.67 1.83,1.83 0 0 0 -1.69,1.11 1.71,1.71 0 0 0 -0.09,1 c 0.06,0.29 0.09,0.59 0.18,0.89 0.08,-0.3 0.11,-0.6 0.18,-0.89 a 1.62,1.62 0 0 1 0.24,-0.73 1.36,1.36 0 0 1 1.19,-0.63 1.81,1.81 0 0 0 1.66,-1.17 1.89,1.89 0 0 0 0.07,-1 c -0.07,-0.29 -0.1,-0.59 -0.18,-0.88 -0.13,0.19 -0.16,0.49 -0.22,0.78 z m 36.88,-45.27 h -0.15 a 1.82,1.82 0 0 0 -1.69,1.1 1.71,1.71 0 0 0 -0.09,1 8.76,8.76 0 0 0 0.18,0.89 c 0.08,-0.29 0.12,-0.59 0.18,-0.89 a 1.66,1.66 0 0 1 0.24,-0.73 1.41,1.41 0 0 1 1.19,-0.63 1.28,1.28 0 0 0 0.48,-0.09 z m -0.25,84 a 1.75,1.75 0 0 1 -0.23,0.74 1.37,1.37 0 0 1 -1.15,0.68 1.82,1.82 0 0 0 -1.69,1.1 1.71,1.71 0 0 0 -0.09,1 c 0.06,0.3 0.09,0.59 0.17,0.89 0.09,-0.3 0.12,-0.59 0.18,-0.89 a 1.62,1.62 0 0 1 0.25,-0.73 1.38,1.38 0 0 1 1.19,-0.63 1.82,1.82 0 0 0 1.66,-1.17 1.75,1.75 0 0 0 0.06,-1 c -0.06,-0.3 -0.09,-0.59 -0.17,-0.89 -0.13,0.16 -0.16,0.45 -0.25,0.75 z m 15.86,-47.12 a 0.26,0.26 0 0 1 0,0.08 1.36,1.36 0 0 1 -1.16,0.67 1.83,1.83 0 0 0 -1.68,1.11 1.63,1.63 0 0 0 -0.1,1 c 0.06,0.29 0.1,0.59 0.18,0.89 0.09,-0.3 0.12,-0.6 0.18,-0.89 a 1.51,1.51 0 0 1 0.25,-0.73 1.37,1.37 0 0 1 1.19,-0.64 1.83,1.83 0 0 0 1.42,-0.73 v 0 c -0.15,-0.41 -0.21,-0.66 -0.32,-0.91 z M 262.75,370 a 1.79,1.79 0 0 1 -0.23,0.75 1.34,1.34 0 0 1 -1.15,0.67 1.83,1.83 0 0 0 -1.69,1.11 1.71,1.71 0 0 0 -0.09,1 c 0.06,0.29 0.09,0.59 0.17,0.89 0.09,-0.3 0.12,-0.6 0.18,-0.89 a 1.62,1.62 0 0 1 0.25,-0.73 1.38,1.38 0 0 1 1.19,-0.64 1.76,1.76 0 0 0 1.72,-2.16 c -0.06,-0.29 -0.09,-0.59 -0.17,-0.88 -0.09,0.26 -0.12,0.56 -0.18,0.88 z m 1.95,-46.57 c -0.16,0.52 -0.32,1 -0.47,1.54 a 1.6,1.6 0 0 0 0.39,-0.62 2,2 0 0 0 0.08,-0.95 z M 281.34,293 a 1.84,1.84 0 0 1 -0.23,0.75 1.35,1.35 0 0 1 -1.15,0.67 1.83,1.83 0 0 0 -1.69,1.11 1.7,1.7 0 0 0 -0.09,1 c 0.06,0.29 0.09,0.59 0.18,0.88 0.08,-0.29 0.12,-0.59 0.18,-0.88 a 1.62,1.62 0 0 1 0.24,-0.73 1.4,1.4 0 0 1 1.19,-0.64 1.8,1.8 0 0 0 1.66,-1.16 1.89,1.89 0 0 0 0.07,-1 c -0.06,-0.29 -0.1,-0.59 -0.18,-0.88 -0.08,0.31 -0.12,0.61 -0.18,0.88 z m -4.57,46.87 a 1.7,1.7 0 0 1 -0.22,0.75 1.38,1.38 0 0 1 -1.16,0.67 1.83,1.83 0 0 0 -1.68,1.11 1.71,1.71 0 0 0 -0.1,1 c 0.06,0.29 0.1,0.59 0.18,0.88 0.08,-0.29 0.12,-0.59 0.18,-0.88 a 1.51,1.51 0 0 1 0.25,-0.73 1.37,1.37 0 0 1 1.19,-0.64 1.78,1.78 0 0 0 1.72,-2.15 c -0.06,-0.29 -0.1,-0.59 -0.18,-0.88 -0.08,0.3 -0.12,0.6 -0.18,0.89 z m 41,6.3 a 1.66,1.66 0 0 1 -0.22,0.75 1.38,1.38 0 0 1 -1.16,0.67 1.83,1.83 0 0 0 -1.68,1.11 1.71,1.71 0 0 0 -0.1,1 c 0.06,0.29 0.1,0.59 0.18,0.88 0.08,-0.29 0.12,-0.59 0.18,-0.88 a 1.62,1.62 0 0 1 0.24,-0.73 1.4,1.4 0 0 1 1.2,-0.64 1.78,1.78 0 0 0 1.72,-2.15 c -0.06,-0.29 -0.1,-0.59 -0.18,-0.88 -0.07,0.3 -0.11,0.6 -0.17,0.89 z m -37.9,52.63 a 1.79,1.79 0 0 1 -0.23,0.75 1.35,1.35 0 0 1 -1.15,0.67 1.83,1.83 0 0 0 -1.69,1.11 1.71,1.71 0 0 0 -0.09,1 c 0.06,0.29 0.09,0.59 0.18,0.88 0.08,-0.29 0.12,-0.59 0.18,-0.88 a 1.62,1.62 0 0 1 0.24,-0.73 1.4,1.4 0 0 1 1.19,-0.64 1.8,1.8 0 0 0 1.66,-1.16 1.89,1.89 0 0 0 0.07,-1 c -0.06,-0.29 -0.1,-0.59 -0.18,-0.88 -0.05,0.31 -0.11,0.61 -0.17,0.9 z m 31.81,-68.89 a 1.64,1.64 0 0 1 0.68,-0.37 1.37,1.37 0 0 1 1.29,0.34 1.83,1.83 0 0 0 2,0.41 1.79,1.79 0 0 0 0.77,-0.63 c 0.16,-0.25 0.35,-0.49 0.5,-0.76 -0.27,0.16 -0.51,0.34 -0.76,0.5 a 1.62,1.62 0 0 1 -0.69,0.35 1.4,1.4 0 0 1 -1.29,-0.4 1.78,1.78 0 0 0 -2.74,0.31 c -0.16,0.25 -0.35,0.48 -0.5,0.75 0.26,-0.13 0.49,-0.32 0.75,-0.48 z m -23.92,21.69 a 1.67,1.67 0 0 1 0.69,-0.37 1.34,1.34 0 0 1 1.29,0.34 1.82,1.82 0 0 0 2,0.41 1.7,1.7 0 0 0 0.76,-0.63 c 0.17,-0.26 0.35,-0.49 0.5,-0.76 -0.26,0.15 -0.5,0.34 -0.75,0.5 a 1.74,1.74 0 0 1 -0.69,0.35 1.4,1.4 0 0 1 -1.29,-0.4 1.83,1.83 0 0 0 -2,-0.35 1.9,1.9 0 0 0 -0.74,0.65 c -0.17,0.26 -0.35,0.49 -0.5,0.76 0.25,-0.1 0.48,-0.34 0.73,-0.5 z m -16.2,31.92 a 1.64,1.64 0 0 1 0.68,-0.37 1.38,1.38 0 0 1 1.3,0.34 1.81,1.81 0 0 0 2,0.41 1.73,1.73 0 0 0 0.77,-0.63 c 0.16,-0.25 0.35,-0.49 0.5,-0.76 -0.27,0.16 -0.5,0.34 -0.76,0.5 a 1.62,1.62 0 0 1 -0.69,0.35 1.4,1.4 0 0 1 -1.36,-0.36 1.78,1.78 0 0 0 -2.74,0.31 c -0.16,0.25 -0.35,0.48 -0.5,0.75 0.31,-0.19 0.54,-0.38 0.8,-0.54 z m 7,33.17 a 1.67,1.67 0 0 1 0.69,-0.37 1.34,1.34 0 0 1 1.29,0.34 1.82,1.82 0 0 0 2,0.41 1.7,1.7 0 0 0 0.76,-0.63 c 0.17,-0.25 0.35,-0.49 0.5,-0.76 -0.27,0.15 -0.5,0.34 -0.75,0.5 a 1.74,1.74 0 0 1 -0.69,0.35 1.4,1.4 0 0 1 -1.29,-0.4 1.81,1.81 0 0 0 -2,-0.34 1.75,1.75 0 0 0 -0.74,0.65 c -0.17,0.25 -0.35,0.48 -0.5,0.75 0.25,-0.19 0.48,-0.34 0.73,-0.5 z m 31.36,-36.45 a 1.67,1.67 0 0 1 0.69,-0.37 1.34,1.34 0 0 1 1.29,0.34 1.82,1.82 0 0 0 2,0.41 1.7,1.7 0 0 0 0.76,-0.63 c 0.17,-0.26 0.35,-0.49 0.5,-0.76 -0.26,0.15 -0.5,0.34 -0.75,0.5 a 1.74,1.74 0 0 1 -0.69,0.35 1.4,1.4 0 0 1 -1.29,-0.4 1.83,1.83 0 0 0 -2,-0.35 1.9,1.9 0 0 0 -0.74,0.65 c -0.17,0.26 -0.35,0.49 -0.5,0.76 0.25,-0.15 0.48,-0.34 0.73,-0.5 z m 21.59,13.21 a 1.64,1.64 0 0 1 0.68,-0.37 1.35,1.35 0 0 1 1.3,0.34 1.81,1.81 0 0 0 2,0.41 1.73,1.73 0 0 0 0.77,-0.63 c 0.16,-0.25 0.35,-0.49 0.5,-0.76 -0.27,0.15 -0.5,0.34 -0.76,0.5 a 1.62,1.62 0 0 1 -0.69,0.35 1.4,1.4 0 0 1 -1.29,-0.4 1.8,1.8 0 0 0 -2,-0.34 1.69,1.69 0 0 0 -0.74,0.65 c -0.17,0.25 -0.35,0.48 -0.51,0.75 0.23,-0.15 0.49,-0.34 0.74,-0.5 z m -36.31,10 a 1.61,1.61 0 0 1 0.69,-0.37 1.34,1.34 0 0 1 1.29,0.34 1.77,1.77 0 0 0 2.74,-0.22 c 0.17,-0.26 0.35,-0.49 0.5,-0.76 -0.27,0.15 -0.5,0.34 -0.75,0.5 a 1.74,1.74 0 0 1 -0.69,0.35 1.39,1.39 0 0 1 -1.29,-0.4 1.84,1.84 0 0 0 -2,-0.35 1.76,1.76 0 0 0 -0.74,0.65 c -0.17,0.26 -0.35,0.49 -0.5,0.76 0.26,-0.12 0.55,-0.31 0.75,-0.47 z m 46.8,13.24 a 1.64,1.64 0 0 1 0.68,-0.37 1.35,1.35 0 0 1 1.3,0.34 1.81,1.81 0 0 0 2,0.41 1.73,1.73 0 0 0 0.77,-0.63 c 0.16,-0.25 0.35,-0.49 0.5,-0.76 -0.27,0.15 -0.5,0.34 -0.76,0.5 a 1.62,1.62 0 0 1 -0.69,0.35 1.4,1.4 0 0 1 -1.29,-0.4 1.78,1.78 0 0 0 -2.74,0.31 c -0.16,0.25 -0.35,0.48 -0.5,0.75 0.27,-0.19 0.51,-0.34 0.73,-0.5 z m 8.35,-35.91 a 1.3,1.3 0 0 1 -0.58,-0.35 1.81,1.81 0 0 0 -2,-0.34 1.89,1.89 0 0 0 -0.74,0.65 c -0.16,0.25 -0.35,0.48 -0.5,0.75 0.27,-0.15 0.5,-0.34 0.75,-0.5 a 1.74,1.74 0 0 1 0.69,-0.37 1.38,1.38 0 0 1 1.29,0.34 1.87,1.87 0 0 0 1.29,0.54 z M 261.79,408 a 1.73,1.73 0 0 1 0.68,-0.36 1.34,1.34 0 0 1 1.29,0.34 1.78,1.78 0 0 0 2.75,-0.22 c 0.16,-0.26 0.35,-0.49 0.5,-0.76 -0.27,0.15 -0.51,0.34 -0.76,0.5 a 1.49,1.49 0 0 1 -0.69,0.34 1.37,1.37 0 0 1 -1.29,-0.39 1.8,1.8 0 0 0 -2,-0.35 1.85,1.85 0 0 0 -0.75,0.65 c -0.16,0.25 -0.35,0.49 -0.5,0.76 0.28,-0.12 0.51,-0.3 0.77,-0.51 z m -2.68,-55.69 a 1.67,1.67 0 0 1 0.69,-0.37 1.37,1.37 0 0 1 1.29,0.34 1.82,1.82 0 0 0 2,0.41 1.7,1.7 0 0 0 0.76,-0.63 c 0.17,-0.25 0.35,-0.49 0.5,-0.76 -0.27,0.16 -0.5,0.34 -0.75,0.5 a 1.74,1.74 0 0 1 -0.69,0.35 1.4,1.4 0 0 1 -1.29,-0.4 1.81,1.81 0 0 0 -2,-0.34 1.75,1.75 0 0 0 -0.74,0.65 c -0.17,0.25 -0.35,0.48 -0.5,0.75 0.25,-0.11 0.48,-0.3 0.73,-0.46 z"
       style="fill:#dbdbdb"
       id="path160" />
    <path
       d="m 265,321.55 q -1.53,5.54 -2.95,11.08 c 0.12,-1.61 0.3,-3.23 0.5,-4.83 0,-0.1 -0.13,-0.14 -0.15,0 a 34.26,34.26 0 0 0 -0.66,6.06 c -1.14,4.46 -2.22,8.94 -3.21,13.44 -1.9,8.63 -3.59,17.33 -5,26.05 -0.79,4.92 -1.4,9.87 -2.25,14.78 0,0.09 0.13,0.13 0.15,0 0.77,-4.35 1.8,-8.68 2.75,-13 0.95,-4.32 1.85,-8.6 2.74,-12.9 1.8,-8.66 3.69,-17.29 5.48,-26 1,-4.87 1.94,-9.76 2.94,-14.64 A 0.18,0.18 0 0 0 265,321.55 Z"
       style="fill:#263238"
       id="path161" />
    <path
       d="m 318.11,301.56 c 17.89,19.19 60.53,91.19 46.71,104.44 -13.82,13.25 -90.49,-4.6 -112,-14.86 -6.41,-3.05 17.94,-43 25.47,-43.93 6.27,-0.77 38.32,13.89 39.25,12 1,-2.08 -6.24,-15.46 -13.95,-43.3 -8.92,-32.04 6.6,-22.83 14.52,-14.35 z"
       style="fill:#ad6359"
       id="path162" />
    <path
       d="m 246.43,334.35 c -15.58,-2.17 -19.91,-0.34 -32.08,-9.15 -8,-5.78 -15.1,-3.16 -10.54,6 7.45,15 26.95,22 34.41,22.52 z"
       style="fill:#ad6359"
       id="path163" />
    <path
       d="m 287.79,349.34 c 0,0 -17.5,-9.72 -33.86,-13.67 -11.32,-2.73 -36.61,-5.93 -60.8,19 -5.74,5.92 -9.72,18.42 3.17,12.16 9.15,-4.45 13.6,-10 19.4,-11.65 0,0 -3.18,16.5 3,22 a 151.65,151.65 0 0 0 17.1,13.27 31.78,31.78 0 0 0 2.77,-3 c 0,0 6.23,4.61 18,3.5 z"
       style="fill:#ad6359"
       id="path164" />
    <path
       d="m 242.71,334.79 c -5.41,2.82 -16.78,9 -24.32,17.27 -8.38,9.2 -22,29.19 -15.19,35.3 5,4.48 10.92,-2.69 10.92,-2.69 0,0 -3.91,9.45 1.52,12.51 4.94,2.79 9.16,-3 9.16,-3 0,0 -1.38,6.13 3.9,7.9 6.35,2.12 8.21,-11.09 16.5,-14.5 1.86,-0.79 -2.49,-52.79 -2.49,-52.79 z"
       style="fill:#ad6359"
       id="path165" />
    <path
       d="m 229.58,359.29 c -4.65,3.49 -13.19,14.13 -15.55,25.14 -0.05,0.25 0.11,0.42 0.21,0.21 a 122.11,122.11 0 0 1 15.43,-25.27 c 0.04,-0.05 -0.03,-0.11 -0.09,-0.08 z"
       style="fill:#263238"
       id="path166" />
    <path
       d="m 238.63,368 c -3.71,3.42 -12,14.78 -14,26 0,0.25 0.13,0.41 0.22,0.19 a 130.7,130.7 0 0 1 13.9,-26.13 C 238.76,368 238.67,368 238.63,368 Z"
       style="fill:#263238"
       id="path167" />
    <path
       d="m 215.7,355.09 c -5.08,1.49 -8.38,4 -12.66,7 a 70.62,70.62 0 0 1 -6.54,4.14 c -2.07,1.11 -5.12,2.8 -7.32,1.05 -1.22,-1 -1.21,-2.74 -0.93,-4.14 a 11.06,11.06 0 0 1 1.84,-4.39 c 0,-0.06 -0.07,-0.15 -0.12,-0.08 a 15,15 0 0 0 -2.1,3.75 6.83,6.83 0 0 0 -0.46,4 c 0.75,2.8 4.05,3.17 6.39,2.4 a 22.27,22.27 0 0 0 4,-1.94 c 1.23,-0.7 2.43,-1.47 3.6,-2.26 2.41,-1.63 4.73,-3.4 7.12,-5.05 a 64.17,64.17 0 0 1 7.26,-4.23 0.13124405,0.13124405 0 0 0 -0.08,-0.25 z"
       style="fill:#263238"
       id="path168" />
    <path
       d="m 205.07,372.94 c 1.31,-2.89 8.42,-14.94 10.73,-17.73 0.06,-0.07 0,-0.16 -0.11,-0.1 -3.95,3.75 -10.31,13.71 -11.79,16.9 -1.48,3.19 -3.15,7.18 -3.15,10.7 0,5.3 3.52,6.3 4.82,6.56 a 6.81,6.81 0 0 0 4.51,-0.74 13.86,13.86 0 0 0 4.09,-3.84 c 0.05,-0.07 0,-0.17 -0.11,-0.1 -1.83,2.09 -4.89,4.15 -7.77,3.77 a 4.81,4.81 0 0 1 -3.28,-1.77 6.28,6.28 0 0 1 -0.84,-4.27 28.81,28.81 0 0 1 2.9,-9.38 z"
       style="fill:#263238"
       id="path169" />
    <path
       d="m 224.6,394 c -0.74,0.63 -2.26,2.83 -4.67,3.3 a 5.48,5.48 0 0 1 -5,-1.11 6.91,6.91 0 0 1 -1.9,-4.82 43.21,43.21 0 0 1 1.11,-6.68 c 0,-0.1 -0.11,-0.15 -0.14,-0.05 a 24.78,24.78 0 0 0 -1.59,7.18 7.24,7.24 0 0 0 2,5.29 5.44,5.44 0 0 0 5.59,1.19 c 0.94,-0.36 3.93,-2.27 4.79,-4.15 0.03,-0.05 -0.16,-0.15 -0.19,-0.15 z"
       style="fill:#263238"
       id="path170" />
    <path
       d="m 244.7,386.6 a 13.1,13.1 0 0 0 -2.25,1.9 c -0.74,0.71 -1.46,1.46 -2.16,2.22 a 30.2,30.2 0 0 0 -3.67,5 c -1.07,1.8 -2.06,3.8 -3.8,5.06 a 5,5 0 0 1 -5.81,0.14 4.85,4.85 0 0 1 -1.81,-2.69 9.63,9.63 0 0 1 -0.34,-3.62 0.07,0.07 0 1 0 -0.14,0 16.38,16.38 0 0 0 -0.26,3.28 5.76,5.76 0 0 0 1,2.8 5.53,5.53 0 0 0 5.41,2 8.13,8.13 0 0 0 5,-3.87 c 1.34,-2 2.45,-4.15 3.88,-6.1 0.75,-1 1.49,-2.06 2.31,-3 0.82,-0.94 1.89,-1.91 2.68,-3 a 0.1,0.1 0 0 0 -0.04,-0.12 z"
       style="fill:#263238"
       id="path171" />
    <path
       d="m 250.9,391.12 a 45,45 0 0 1 -8.53,-1.77 c -0.09,0 -0.22,0.22 -0.14,0.27 a 20.71,20.71 0 0 0 4.21,1.39 15.06,15.06 0 0 0 4.44,0.27 c 0.12,-0.01 0.12,-0.15 0.02,-0.16 z"
       style="fill:#263238"
       id="path172" />
    <path
       d="m 346.5,373.29 a 112.19,112.19 0 0 0 -14.09,-8.06 108.56,108.56 0 0 0 -15,-5.79 c -2.92,-0.93 -5.87,-1.71 -8.82,-2.51 -0.09,0 -0.12,0.11 0,0.14 a 140.87,140.87 0 0 1 15.11,5.67 q 7.37,3.18 14.6,6.62 c 2.73,1.3 5.4,2.73 8.09,4.12 a 0.11,0.11 0 0 0 0.11,-0.19 z"
       style="fill:#263238"
       id="path173" />
    <path
       d="m 354.8,346.81 -43.49,-1.44 c 0,0 -8.09,-21.46 -11.17,-40.56 -3.08,-19.1 12.56,-13.26 28.86,7.19 16.3,20.45 25.8,34.81 25.8,34.81 z"
       style="fill:#a6a6a6"
       id="path174" />
    <path
       d="m 316.15,329.43 a 1.78,1.78 0 0 1 -0.69,0.34 1.38,1.38 0 0 1 -1.28,-0.4 1.82,1.82 0 0 0 -2,-0.34 1.85,1.85 0 0 0 -0.75,0.65 c -0.17,0.25 -0.35,0.48 -0.5,0.75 0.27,-0.15 0.5,-0.34 0.76,-0.5 a 1.58,1.58 0 0 1 0.68,-0.37 1.41,1.41 0 0 1 1.3,0.34 1.81,1.81 0 0 0 2,0.41 1.7,1.7 0 0 0 0.76,-0.63 7.52,7.52 0 0 0 0.5,-0.75 c -0.3,0.15 -0.53,0.33 -0.78,0.5 z m 13.72,-8 c -0.06,-0.29 -0.1,-0.59 -0.18,-0.89 -0.09,0.3 -0.12,0.6 -0.18,0.89 a 1.74,1.74 0 0 1 -0.22,0.74 1.36,1.36 0 0 1 -1.16,0.68 1.82,1.82 0 0 0 -1.69,1.1 1.71,1.71 0 0 0 -0.09,1 8.76,8.76 0 0 0 0.18,0.89 c 0.08,-0.29 0.12,-0.59 0.18,-0.89 a 1.66,1.66 0 0 1 0.24,-0.73 1.41,1.41 0 0 1 1.19,-0.63 1.82,1.82 0 0 0 1.66,-1.17 1.76,1.76 0 0 0 0.07,-0.99 z m -15.28,-23.91 a 1.55,1.55 0 0 0 0,0.31 c 0.06,0.29 0.09,0.59 0.18,0.88 0.08,-0.29 0.12,-0.59 0.18,-0.88 v 0 c -0.1,-0.13 -0.23,-0.22 -0.36,-0.31 z m 31,36.17 a 1.26,1.26 0 0 1 -0.86,-0.38 1.83,1.83 0 0 0 -2,-0.41 1.73,1.73 0 0 0 -0.77,0.63 c -0.17,0.26 -0.35,0.49 -0.5,0.76 0.27,-0.15 0.5,-0.33 0.76,-0.5 a 1.41,1.41 0 0 1 0.68,-0.34 1.39,1.39 0 0 1 1.3,0.39 1.81,1.81 0 0 0 1.78,0.43 z M 315.5,312 a 1.62,1.62 0 0 1 -0.74,-0.24 1.38,1.38 0 0 1 -0.63,-1.19 1.81,1.81 0 0 0 -1.16,-1.66 1.9,1.9 0 0 0 -1,-0.07 c -0.3,0.07 -0.6,0.1 -0.89,0.19 0.29,0.07 0.59,0.11 0.89,0.17 a 1.89,1.89 0 0 1 0.75,0.22 1.41,1.41 0 0 1 0.67,1.16 1.82,1.82 0 0 0 1.11,1.69 1.7,1.7 0 0 0 1,0.09 c 0.28,-0.06 0.58,-0.09 0.88,-0.17 -0.3,-0.08 -0.6,-0.11 -0.88,-0.19 z m 20,30.42 a 1.51,1.51 0 0 1 -0.73,-0.25 1.37,1.37 0 0 1 -0.64,-1.19 1.81,1.81 0 0 0 -1.16,-1.65 1.86,1.86 0 0 0 -1,-0.07 c -0.3,0.07 -0.59,0.09 -0.89,0.18 0.3,0.08 0.59,0.12 0.89,0.18 a 1.65,1.65 0 0 1 0.74,0.22 1.36,1.36 0 0 1 0.67,1.16 1.83,1.83 0 0 0 1.11,1.68 1.63,1.63 0 0 0 1,0.1 c 0.3,-0.06 0.59,-0.1 0.89,-0.18 -0.29,-0.08 -0.58,-0.11 -0.88,-0.17 z"
       style="fill:#dbdbdb"
       id="path175" />
    <path
       d="m 313.1,345.23 c -0.23,0 -1.76,-0.27 -1.77,-0.27 -0.11,-0.57 -2.59,-9.54 -3.24,-11.5 -1.33,-4 -2.89,-7.88 -4.4,-11.8 -0.05,-0.12 -0.24,-0.07 -0.2,0.06 1,3.37 1.9,6.76 2.91,10.12 -0.3,-0.48 -0.6,-1 -0.89,-1.44 -0.59,-1 -1.1,-2 -1.65,-3 a 0.09192388,0.09192388 0 0 0 -0.17,0.07 17.13,17.13 0 0 0 1.92,4 15.62,15.62 0 0 0 1.13,1.54 c 0.09,0.28 0.17,0.56 0.26,0.83 0.61,2 3.8,11.68 4,11.69 h 2.1 c 0.08,-0.01 0.12,-0.3 0,-0.3 z"
       style="fill:#263238"
       id="path176" />
    <path
       d="m 347.76,338.39 c -9.38,-0.7 -18.82,-0.74 -28.24,-0.6 -2.66,0 -5.33,0.14 -8,0.31 -0.08,0 -0.09,0.11 0,0.11 4.69,0.26 9.39,0.31 14.09,0.4 4.7,0.09 9.43,0.14 14.14,0.09 2.66,0 5.32,-0.05 8,-0.13 a 0.09013878,0.09013878 0 0 0 0.01,-0.18 z"
       style="fill:#263238"
       id="path177" />
    <path
       d="m 277.55,292.78 c -2.89,2.42 -5.79,11.45 -4.19,17.42 1.6,5.97 4.75,9.81 10.18,9.33 5.43,-0.48 15.86,-4.63 22.66,-16.81 6.8,-12.18 -14.43,-21.83 -28.65,-9.94 z"
       style="fill:#dbdbdb"
       id="path178" />
    <path
       d="m 281.47,312.84 c 6.42,1.89 18.11,-7.45 23,-15.26 0.33,-0.54 -0.78,-22.75 -0.54,-27.17 0.05,-0.91 -28.11,5.25 -28.11,5.25 0,0 2.23,9.41 1.77,17.12 -0.09,0.65 -2.33,18.22 3.88,20.06 z"
       style="fill:#ad6359"
       id="path179" />
    <path
       d="m 304.4,291.93 c -14.8,2.19 -22.83,-2.24 -27,-6.49 a 82.76,82.76 0 0 0 -1.56,-9.79 c 0,0 28.15,-6.15 28.1,-5.24 -0.21,3.04 0.26,14.49 0.46,21.52 z"
       style="fill:#263238"
       id="path180" />
    <path
       d="m 268.9,234.77 c -4.11,9.44 -2.18,38.31 4.06,45.41 9.05,10.29 25.47,13.06 34.62,1.82 8.88,-10.9 5.7,-48.47 -1.42,-55.09 -10.49,-9.75 -31.16,-6.1 -37.26,7.86 z"
       style="fill:#ad6359"
       id="path181" />
    <path
       d="m 295,255.1 c 0,-0.07 -0.15,0.1 -0.14,0.18 0.18,1.94 0.06,4.2 -1.66,5 -0.05,0 0,0.12 0,0.11 2.18,-0.49 2.3,-3.48 1.8,-5.29 z"
       style="fill:#263238"
       id="path182" />
    <path
       d="m 293.16,253.18 c -3.15,-0.05 -3,6.24 -0.09,6.28 2.91,0.04 2.72,-6.25 0.09,-6.28 z"
       style="fill:#263238"
       id="path183" />
    <path
       d="m 305.78,255.15 c 0,-0.08 0.16,0.09 0.16,0.17 0,1.95 0.29,4.18 2.07,4.79 0.05,0 0.05,0.12 0,0.11 -2.18,-0.22 -2.55,-3.22 -2.23,-5.07 z"
       style="fill:#263238"
       id="path184" />
    <path
       d="m 307.48,253.08 c 3.13,-0.31 3.51,6 0.62,6.25 -2.89,0.25 -3.24,-6 -0.62,-6.25 z"
       style="fill:#263238"
       id="path185" />
    <path
       d="m 290.61,250.36 a 24.88,24.88 0 0 0 2.41,-0.91 4.22,4.22 0 0 0 2.29,-1.41 1.32,1.32 0 0 0 -0.25,-1.6 3.3,3.3 0 0 0 -3.33,-0.26 4.83,4.83 0 0 0 -2.74,2.15 1.42,1.42 0 0 0 1.62,2.03 z"
       style="fill:#263238"
       id="path186" />
    <path
       d="m 309.84,249.85 a 24.24,24.24 0 0 1 -2.52,-0.59 4.24,4.24 0 0 1 -2.45,-1.09 1.34,1.34 0 0 1 0,-1.62 3.28,3.28 0 0 1 3.27,-0.7 4.85,4.85 0 0 1 3,1.78 1.42,1.42 0 0 1 -1.3,2.22 z"
       style="fill:#263238"
       id="path187" />
    <path
       d="m 293.11,273.21 c 0.48,0.45 1,1.06 1.67,1.11 a 5.3,5.3 0 0 0 2.08,-0.54 0.07,0.07 0 0 1 0.08,0.1 2.6,2.6 0 0 1 -2.44,1.12 2.06,2.06 0 0 1 -1.57,-1.69 c -0.04,-0.12 0.07,-0.16 0.18,-0.1 z"
       style="fill:#263238"
       id="path188" />
    <path
       d="m 295,267.33 a 6.65,6.65 0 0 0 4.5,2.85 8.31,8.31 0 0 0 2.39,0.06 2.22,2.22 0 0 0 0.45,-0.07 l 0.43,-0.07 a 0.48,0.48 0 0 0 0.38,-0.45 v 0 a 1.36,1.36 0 0 0 0,-0.2 v 0 -0.18 c 0,-1.5 -0.19,-3.77 -0.19,-3.77 0.55,0.26 3.37,1.45 3.31,0.67 -0.53,-6.48 -1.13,-13.68 -3,-20 a 0.18,0.18 0 0 0 -0.35,0.06 c 0.26,6.25 1.63,12.4 2,18.67 a 11.69,11.69 0 0 0 -3.15,-0.87 c -0.22,0.06 0.46,4.39 0.4,5.06 a 0.45,0.45 0 0 1 0,0.08 c -2.51,0.38 -4.43,-0.34 -6.92,-2 -0.19,-0.17 -0.35,0.01 -0.25,0.16 z"
       style="fill:#263238"
       id="path189" />
    <path
       d="m 301,269.5 a 7.89,7.89 0 0 1 -3.1,2.51 3.47,3.47 0 0 1 -2.15,0.18 c -1.56,-0.37 -1.63,-1.8 -1.38,-3 a 8.3,8.3 0 0 1 0.66,-1.88 10.25,10.25 0 0 0 5.97,2.19 z"
       style="fill:#263238"
       id="path190" />
    <path
       d="m 297.91,272 a 3.47,3.47 0 0 1 -2.15,0.18 c -1.56,-0.37 -1.63,-1.8 -1.38,-3 1.68,0.12 3.35,1.21 3.53,2.82 z"
       style="fill:#ff99ba"
       id="path191" />
    <path
       d="m 268,257.16 c 7.35,0.31 9.41,-13 9.41,-13 0,0 12.72,-1.48 15,-10.89 0,0 11.61,8.21 21.19,5.24 9.58,-2.97 8.11,-13.72 7.17,-16.05 -0.94,-2.33 -6.36,1.66 -6.36,1.66 0,0 -0.31,-6.06 -1.89,-6.75 -1.58,-0.69 -3.51,2.88 -3.51,2.88 0,0 -11.94,-4.64 -23,-4.84 -11.06,-0.2 -17,10.63 -17,10.63 0,0 -6,1 -8.05,5 -2.05,4 2.35,25.96 7.04,26.12 z"
       style="fill:#263238"
       id="path192" />
    <path
       d="m 292.33,231.48 a 15.66,15.66 0 0 1 -1.41,5.58 10.53,10.53 0 0 1 -3.68,4.17 15.31,15.31 0 0 1 -5.33,1.86 c -0.94,0.14 -1.91,0.19 -2.88,0.27 -0.97,0.08 -1.95,0 -2.94,0 1,0.18 2,0.3 2.93,0.45 0.93,0.15 2,0 3,0 a 13.34,13.34 0 0 0 5.75,-1.79 10,10 0 0 0 3.83,-4.67 12.24,12.24 0 0 0 0.73,-5.87 z"
       style="fill:#263238"
       id="path193" />
    <path
       d="m 268.9,227.58 a 18.05,18.05 0 0 1 4.72,-8.07 14.38,14.38 0 0 1 8.23,-3.94 16.44,16.44 0 0 1 2.32,-0.24 l 2.35,0.07 c 1.56,0.12 3.11,0.47 4.66,0.73 1.51,0.45 3.07,0.8 4.56,1.32 1.49,0.52 3,1.13 4.5,1.66 -1.43,-0.72 -2.88,-1.39 -4.33,-2.09 -1.45,-0.7 -3,-1.06 -4.55,-1.6 a 24.33,24.33 0 0 0 -9.65,-0.79 14.69,14.69 0 0 0 -8.61,4.37 16.28,16.28 0 0 0 -4.2,8.58 z"
       style="fill:#263238"
       id="path194" />
    <path
       d="m 290.7,264.2 a 8.34,8.34 0 1 1 9.11,-9.51 v 0 a 8.36,8.36 0 0 1 -7,9.47 8.46,8.46 0 0 1 -2.11,0.04 z m 1.6,-15.48 a 7.22,7.22 0 1 0 6.41,6.13 7.25,7.25 0 0 0 -6.41,-6.13 z"
       style="fill:#ffc727"
       id="path195" />
    <path
       d="m 309.84,263.83 c -3.18,-0.32 -5.72,-3.87 -5.78,-8.22 a 9.93,9.93 0 0 1 1.68,-5.86 5.2,5.2 0 0 1 8.89,-0.13 10,10 0 0 1 1.84,5.81 c 0.07,4.6 -2.66,8.38 -6.08,8.43 a 4.93,4.93 0 0 1 -0.55,-0.03 z m 0.75,-15.52 h -0.43 a 4.46,4.46 0 0 0 -3.51,2.1 8.84,8.84 0 0 0 -1.48,5.2 c 0.06,4 2.38,7.19 5.2,7.15 2.82,-0.04 5.05,-3.31 5,-7.29 a 8.85,8.85 0 0 0 -1.62,-5.16 4.6,4.6 0 0 0 -3.16,-2 z"
       style="fill:#ffc727"
       id="path196" />
    <path
       d="m 299.54,255.66 -0.73,-0.85 c 1.25,-1.08 4.16,-2.55 6.22,-0.4 l -0.8,0.78 c -1.85,-1.93 -4.57,0.37 -4.69,0.47 z"
       style="fill:#ffc727"
       id="path197" />
    <path
       d="m 262.41,258.33 -1,-0.5 c 0.23,-0.46 2.34,-4.56 4.82,-5 2.32,-0.4 17.29,0.79 17.92,0.84 l -0.09,1.11 c -4.29,-0.34 -15.84,-1.17 -17.63,-0.85 -1.63,0.29 -3.43,3.28 -4.02,4.4 z"
       style="fill:#ffc727"
       id="path198" />
    <path
       d="m 272.3,258.5 c 0,0 -5.54,-9.77 -9.91,-7.87 -4.37,1.9 -0.81,15.62 3.9,17.9 a 5,5 0 0 0 6.9,-2 z"
       style="fill:#ad6359"
       id="path199" />
    <path
       d="m 263.51,254.54 c -0.08,0 -0.1,0.09 0,0.13 3.29,1.71 4.79,5.05 5.75,8.46 -0.9,-1.36 -2.22,-2.19 -4,-1.14 a 0.10124228,0.10124228 0 0 0 0.07,0.19 3.07,3.07 0 0 1 3.26,1.39 14,14 0 0 1 1.35,2.87 c 0.14,0.32 0.7,0.21 0.62,-0.16 0,0 0,0 0,-0.08 0.44,-4.35 -2.41,-10.78 -7.05,-11.66 z"
       style="fill:#263238"
       id="path200" />
  </g>
  <g
     id="freepik--Desk--inject-2"
     transform="translate(-31807.5,-25344.997)">
    <polygon
       points="534.59,418.42 614.38,418.51 694.18,418.76 614.38,419 534.59,419.09 375,419.25 215.41,419.09 135.62,419 55.82,418.76 135.62,418.51 215.41,418.43 375,418.26 "
       style="fill:#263238"
       id="polygon200" />
  </g>
  <g
     id="freepik--device-2--inject-2"
     transform="translate(-31807.5,-25344.997)">
    <rect
       x="509.39001"
       y="416.23999"
       width="111.19"
       height="4.9899998"
       style="fill:#455a64"
       id="rect200" />
    <rect
       x="509.39001"
       y="416.23999"
       width="55.970001"
       height="4.9899998"
       style="fill:#263238"
       id="rect201" />
    <polygon
       points="564.06,421.23 672.43,421.23 687.74,347.63 579.37,347.63 "
       style="fill:#37474f"
       id="polygon201" />
    <path
       d="m 617.5,386.07 a 6.38,6.38 0 0 0 6.46,7.22 8.22,8.22 0 0 0 8,-7.22 6.39,6.39 0 0 0 -6.47,-7.22 8.21,8.21 0 0 0 -7.99,7.22 z"
       style="fill:#ffffff"
       id="path201" />
  </g>
  <g
     id="freepik--device-1--inject-2"
     transform="translate(-31807.5,-25344.997)">
    <rect
       x="222.89999"
       y="413.92999"
       width="6.1399999"
       height="4.0100002"
       transform="rotate(180,225.97,415.94)"
       style="fill:#455a64"
       id="rect202" />
    <rect
       x="214.92999"
       y="413.67001"
       width="6.1399999"
       height="4.0100002"
       transform="rotate(180,218.005,415.675)"
       style="fill:#455a64"
       id="rect203" />
    <rect
       x="206.97"
       y="413.39999"
       width="6.1399999"
       height="4.0100002"
       transform="rotate(180,210.04,415.41)"
       style="fill:#455a64"
       id="rect204" />
    <rect
       x="199"
       y="413.14001"
       width="6.1399999"
       height="4.0100002"
       transform="rotate(180,202.075,415.14)"
       style="fill:#455a64"
       id="rect205" />
    <rect
       x="191.03999"
       y="412.87"
       width="6.1399999"
       height="4.0100002"
       transform="rotate(180,194.11,414.875)"
       style="fill:#455a64"
       id="rect206" />
    <rect
       x="183.07001"
       y="412.60999"
       width="6.1399999"
       height="4.0100002"
       transform="rotate(180,186.145,414.615)"
       style="fill:#455a64"
       id="rect207" />
    <rect
       x="175.11"
       y="412.34"
       width="6.1399999"
       height="4.0100002"
       transform="rotate(180,178.18,414.35)"
       style="fill:#455a64"
       id="rect208" />
    <rect
       x="167.14"
       y="412.07999"
       width="6.1399999"
       height="4.0100002"
       transform="rotate(180,170.215,414.08)"
       style="fill:#455a64"
       id="rect209" />
    <rect
       x="159.17999"
       y="411.81"
       width="6.1399999"
       height="4.0100002"
       transform="rotate(180,162.25,413.82)"
       style="fill:#455a64"
       id="rect210" />
    <polygon
       points="157.68,420.25 230.54,420.25 230.54,415.37 157.68,413.34 "
       style="fill:#37474f"
       id="polygon210" />
    <polygon
       points="86.55,401.01 206.85,401.01 187.72,311.45 67.42,311.45 "
       style="fill:#455a64"
       id="polygon211" />
    <polygon
       points="82.1,401.01 202.4,401.01 183.27,311.45 62.97,311.45 "
       style="fill:#37474f"
       id="polygon212" />
    <path
       d="m 122.29,351 a 9.05,9.05 0 0 0 8.62,7.44 6.2,6.2 0 0 0 6.26,-7.44 9.06,9.06 0 0 0 -8.62,-7.44 6.19,6.19 0 0 0 -6.26,7.44 z"
       style="fill:#263238"
       id="path212" />
    <polygon
       points="116.13,424.4 175.29,424.4 175.29,419.8 116.13,417.89 "
       style="fill:#455a64"
       id="polygon213" />
    <polygon
       points="100.04,424.39 131.81,424.39 150.94,374.21 119.17,374.21 "
       style="fill:#455a64"
       id="polygon214" />
    <polygon
       points="94.81,424.39 126.58,424.39 145.71,374.21 113.94,374.21 "
       style="fill:#263238"
       id="polygon215" />
    <path
       d="m 232.79,425.62 h 61 c 5.21,0 -2.32,-14.83 -21.32,-20.51 -19,-5.68 -45.67,14.95 -39.68,20.51 z"
       style="fill:#37474f"
       id="path215" />
    <path
       d="m 256.73,425.62 a 38,38 0 0 0 -1.53,-4.74 29.36,29.36 0 0 0 -2.17,-4.39 21,21 0 0 0 -2.94,-3.89 l -0.85,-0.88 -0.94,-0.81 c -0.59,-0.59 -1.33,-1 -2,-1.51 a 14.24,14.24 0 0 1 4.32,2.63 16.87,16.87 0 0 1 3.25,3.94 19.65,19.65 0 0 1 2.86,9.65 z"
       style="fill:#263238"
       id="path216" />
    <path
       d="m 249.5,411.51 c -1.66,0.91 -3.29,1.85 -4.91,2.8 -1.62,0.95 -3.2,1.94 -4.71,3 a 31,31 0 0 0 -4.25,3.57 10.85,10.85 0 0 0 -2.84,4.71 8.91,8.91 0 0 1 2.26,-5.22 21.67,21.67 0 0 1 4.25,-3.87 36.84,36.84 0 0 1 10.2,-4.99 z"
       style="fill:#263238"
       id="path217" />
  </g>
  <g
     id="freepik--Drink--inject-2"
     transform="translate(-31807.5,-25344.997)">
    <polygon
       points="346.03,389.01 341.64,444.23 311.26,444.23 306.86,389.01 "
       style="fill:#ffc727"
       id="polygon217" />
    <rect
       x="303.98999"
       y="384.01999"
       width="44.66"
       height="8.0500002"
       style="fill:#455a64"
       id="rect217" />
    <polygon
       points="345.59,384.02 307.05,384.02 309.3,374.98 343.33,374.98 "
       style="fill:#37474f"
       id="polygon218" />
    <path
       d="m 337,417.1 c 0,7.17 -4.72,13 -10.54,13 -5.82,0 -10.55,-5.82 -10.55,-13 0,-7.18 4.72,-13 10.55,-13 5.83,0 10.54,5.83 10.54,13 z"
       style="fill:#ffffff"
       id="path218" />
  </g>
  <g
     id="freepik--speech-bubble--inject-2"
     transform="translate(-31807.5,-25344.997)">
    <path
       d="m 331.82,249.18 a 17.48,17.48 0 0 1 -3,-9.67 c 0,-12.25 13.45,-22.19 30,-22.19 16.55,0 30,9.94 30,22.19 0,12.25 -13.44,22.19 -30,22.19 a 36,36 0 0 1 -20.72,-6.14 l -10.35,2.63 z"
       style="fill:#ffffff"
       id="path219" />
    <path
       d="m 331.82,249.18 a 17.17,17.17 0 0 1 -0.73,-18.56 23.84,23.84 0 0 1 6.62,-7.2 31.47,31.47 0 0 1 8.73,-4.46 40,40 0 0 1 9.62,-1.94 41.35,41.35 0 0 1 9.81,0.49 34.94,34.94 0 0 1 9.39,2.92 29,29 0 0 1 8.1,5.6 20.68,20.68 0 0 1 5.24,8.38 17,17 0 0 1 0.09,9.88 20.44,20.44 0 0 1 -5.1,8.45 28.69,28.69 0 0 1 -8,5.7 38.71,38.71 0 0 1 -19.2,3.56 35.71,35.71 0 0 1 -18.39,-6.25 h 0.18 l -10.37,2.52 -0.23,0.05 0.1,-0.2 z m 0,0 -3.92,9.06 -0.13,-0.15 10.32,-2.75 h 0.1 l 0.09,0.06 a 35.3,35.3 0 0 0 18.15,5.89 40.19,40.19 0 0 0 9.61,-0.65 34.85,34.85 0 0 0 9.13,-3 28.15,28.15 0 0 0 7.76,-5.55 19.57,19.57 0 0 0 4.83,-8.08 16,16 0 0 0 -0.12,-9.32 19.58,19.58 0 0 0 -5,-8 27.9,27.9 0 0 0 -7.82,-5.45 34,34 0 0 0 -9.14,-2.89 41.8,41.8 0 0 0 -9.61,-0.53 40,40 0 0 0 -9.45,1.78 30.79,30.79 0 0 0 -8.61,4.27 23.69,23.69 0 0 0 -6.58,7 17.29,17.29 0 0 0 -2.53,9.19 17.59,17.59 0 0 0 2.92,9.12 z"
       style="fill:#263238"
       id="path220" />
    <path
       d="m 369.67,239.51 a 3.12,3.12 0 1 0 3.11,-3.11 3.12,3.12 0 0 0 -3.11,3.11 z"
       style="fill:#263238"
       id="path221" />
    <path
       d="m 355.75,239.51 a 3.12,3.12 0 1 0 3.11,-3.11 3.12,3.12 0 0 0 -3.11,3.11 z"
       style="fill:#263238"
       id="path222" />
    <path
       d="m 341.83,239.51 a 3.12,3.12 0 1 0 3.11,-3.11 3.12,3.12 0 0 0 -3.11,3.11 z"
       style="fill:#263238"
       id="path223" />
  </g>
</svg>
