<?xml version="1.0" encoding="UTF-8" standalone="no"?>
<!-- Created with Inkscape (http://www.inkscape.org/) -->

<svg
   width="849.69586"
   height="264.5983"
   viewBox="0 0 224.81536 70.008299"
   version="1.1"
   id="svg1"
   xml:space="preserve"
   xmlns="http://www.w3.org/2000/svg"
   xmlns:svg="http://www.w3.org/2000/svg"><defs
     id="defs1"><clipPath
       clipPathUnits="userSpaceOnUse"
       id="clipPath31"><path
         id="path31"
         style="display:none;stroke-width:0.123254"
         d="m 62.627185,121.77293 -0.740006,1.60249 -1.232482,2.58795 -0.862481,1.72548 -1.478981,3.32796 -0.123505,0.6165 -0.492992,-0.12351 -0.862481,-0.49299 -2.958476,-1.72548 -3.204456,-1.84898 -2.957957,-1.72548 -1.971974,-1.10897 -2.341975,-1.35599 -1.35599,-0.73949 h -0.369488 l 0.615985,0.98598 1.355989,2.46497 1.725475,2.95848 1.848983,3.20445 1.725477,2.95796 1.848467,3.20446 0.123505,0.6165 h -0.246497 l -3.204456,1.47898 -1.971971,0.98598 -4.437457,1.97197 v 0.37001 l 2.21847,1.10949 3.081465,1.35547 3.943945,1.84899 0.740008,0.12299 -0.370004,0.86299 -1.602486,2.71147 -0.739489,1.35599 -1.478981,2.46496 -1.84898,3.20446 -1.725478,2.95847 -1.232482,2.09496 -0.246496,0.6165 1.602486,-0.73949 1.232482,-0.73948 3.204456,-1.84899 2.095479,-1.23248 2.588472,-1.47898 2.957959,-1.72548 2.095479,-1.10949 0.615984,-0.12351 0.123505,0.37001 1.478981,3.32796 1.848467,3.94395 0.986502,1.97197 0.492992,-0.12299 1.108978,-2.46497 1.602486,-3.45147 1.725477,-3.57446 0.862994,0.37001 3.080949,1.72547 3.57446,2.09548 2.957959,1.72548 3.327961,1.84898 1.602486,0.98599 0.615985,0.12299 v -0.493 l -0.739489,-1.10897 -1.601971,-2.83497 -3.451468,-5.91644 -1.848466,-3.20445 -1.109494,-1.84898 -0.246496,-0.61599 0.6165,-0.24649 3.943946,-1.84899 5.053438,-2.34197 v -0.493 l -1.232485,-0.61598 -3.450952,-1.60248 -3.327961,-1.60197 -1.478981,-0.6165 -0.123505,-0.37001 0.370004,-0.49299 1.355471,-2.34146 1.725477,-2.95847 1.972488,-3.45096 1.232484,-2.09548 1.232483,-2.21847 1.232484,-2.09496 0.122989,-0.49351 h -0.246496 l -0.739489,0.49351 -2.094963,1.23248 -3.204972,1.84847 -3.450953,1.97197 -2.464967,1.4795 -3.327963,1.84847 -0.739487,0.24649 -1.478981,-3.20445 -1.35599,-2.95796 -1.60197,-3.32796 z" /><path
         id="lpe_path-effect31"
         style="stroke-width:0.123254"
         class="powerclip"
         d="M 22.869317,103.58471 H 102.87761 V 183.593 H 22.869317 Z m 39.757868,18.18822 -0.740006,1.60249 -1.232482,2.58795 -0.862481,1.72548 -1.478981,3.32796 -0.123505,0.6165 -0.492992,-0.12351 -0.862481,-0.49299 -2.958476,-1.72548 -3.204456,-1.84898 -2.957957,-1.72548 -1.971974,-1.10897 -2.341975,-1.35599 -1.35599,-0.73949 h -0.369488 l 0.615985,0.98598 1.355989,2.46497 1.725475,2.95848 1.848983,3.20445 1.725477,2.95796 1.848467,3.20446 0.123505,0.6165 h -0.246497 l -3.204456,1.47898 -1.971971,0.98598 -4.437457,1.97197 v 0.37001 l 2.21847,1.10949 3.081465,1.35547 3.943945,1.84899 0.740008,0.12299 -0.370004,0.86299 -1.602486,2.71147 -0.739489,1.35599 -1.478981,2.46496 -1.84898,3.20446 -1.725478,2.95847 -1.232482,2.09496 -0.246496,0.6165 1.602486,-0.73949 1.232482,-0.73948 3.204456,-1.84899 2.095479,-1.23248 2.588472,-1.47898 2.957959,-1.72548 2.095479,-1.10949 0.615984,-0.12351 0.123505,0.37001 1.478981,3.32796 1.848467,3.94395 0.986502,1.97197 0.492992,-0.12299 1.108978,-2.46497 1.602486,-3.45147 1.725477,-3.57446 0.862994,0.37001 3.080949,1.72547 3.57446,2.09548 2.957959,1.72548 3.327961,1.84898 1.602486,0.98599 0.615985,0.12299 v -0.493 l -0.739489,-1.10897 -1.601971,-2.83497 -3.451468,-5.91644 -1.848466,-3.20445 -1.109494,-1.84898 -0.246496,-0.61599 0.6165,-0.24649 3.943946,-1.84899 5.053438,-2.34197 v -0.493 l -1.232485,-0.61598 -3.450952,-1.60248 -3.327961,-1.60197 -1.478981,-0.6165 -0.123505,-0.37001 0.370004,-0.49299 1.355471,-2.34146 1.725477,-2.95847 1.972488,-3.45096 1.232484,-2.09548 1.232483,-2.21847 1.232484,-2.09496 0.122989,-0.49351 h -0.246496 l -0.739489,0.49351 -2.094963,1.23248 -3.204972,1.84847 -3.450953,1.97197 -2.464967,1.4795 -3.327963,1.84847 -0.739487,0.24649 -1.478981,-3.20445 -1.35599,-2.95796 -1.60197,-3.32796 z" /></clipPath><clipPath
       clipPathUnits="userSpaceOnUse"
       id="clipPath32"><path
         id="path32"
         style="display:none;stroke-width:0.123254"
         d="m 141.3862,136.07025 -0.73949,0.1235 -1.97197,0.61599 -1.60249,0.98598 v 0.2465 h -0.24649 l -0.86248,0.73949 -0.2465,0.6165 h -0.2465 l -0.1235,0.49299 h -0.2465 l -0.86248,1.60249 -0.37,1.35547 -0.2465,1.60249 v 1.23248 l 0.2465,1.72548 0.49299,1.35599 0.98599,1.72547 0.49299,0.493 0.49299,0.6165 0.493,0.24649 v 0.2465 l 0.73949,0.49299 1.23248,0.73949 1.60249,0.49299 2.34197,0.36949 2.34146,-0.36949 1.4795,-0.49299 1.35547,-0.73949 1.47898,-1.10949 0.49299,-0.61598 0.2465,-0.6165 h 0.2465 l 0.86299,-1.72548 0.493,-1.60249 0.1235,-1.35547 v -1.60249 l -0.37,-1.60248 -0.73949,-1.72548 -1.10949,-1.60248 -0.98599,-0.98599 -0.61598,-0.2465 v -0.24649 l -2.21847,-1.10898 -1.84899,-0.37 z" /><path
         id="lpe_path-effect32"
         style="stroke-width:0.123254"
         class="powerclip"
         d="m 123.93763,126.75647 h 37.6089 v 36.62287 h -37.6089 z m 17.44857,9.31378 -0.73949,0.1235 -1.97197,0.61599 -1.60249,0.98598 v 0.2465 h -0.24649 l -0.86248,0.73949 -0.2465,0.6165 h -0.2465 l -0.1235,0.49299 h -0.2465 l -0.86248,1.60249 -0.37,1.35547 -0.2465,1.60249 v 1.23248 l 0.2465,1.72548 0.49299,1.35599 0.98599,1.72547 0.49299,0.493 0.49299,0.6165 0.493,0.24649 v 0.2465 l 0.73949,0.49299 1.23248,0.73949 1.60249,0.49299 2.34197,0.36949 2.34146,-0.36949 1.4795,-0.49299 1.35547,-0.73949 1.47898,-1.10949 0.49299,-0.61598 0.2465,-0.6165 h 0.2465 l 0.86299,-1.72548 0.493,-1.60249 0.1235,-1.35547 v -1.60249 l -0.37,-1.60248 -0.73949,-1.72548 -1.10949,-1.60248 -0.98599,-0.98599 -0.61598,-0.2465 v -0.24649 l -2.21847,-1.10898 -1.84899,-0.37 z" /></clipPath><clipPath
       clipPathUnits="userSpaceOnUse"
       id="clipPath33"><path
         id="path33"
         style="display:none;stroke-width:0.123254"
         d="m 163.32543,136.44025 v 17.25528 h 5.29994 l 2.58847,-0.2465 1.84898,-0.61598 1.10898,-0.6165 v -0.2465 l 0.49299,-0.12299 0.12351,-0.37 h 0.24649 l 0.98599,-1.10898 0.86248,-1.60248 0.49299,-2.09548 v -3.32797 l -0.49299,-1.72547 -1.10898,-2.09496 h -0.24649 v -0.24702 l -1.35599,-1.23248 -1.47898,-0.86248 -2.21847,-0.6165 -2.71146,-0.12299 z" /><path
         id="lpe_path-effect33"
         style="stroke-width:0.123254"
         class="powerclip"
         d="m 153.64184,127.24949 h 33.54152 v 35.63684 h -33.54152 z m 9.68359,9.19076 v 17.25528 h 5.29994 l 2.58847,-0.2465 1.84898,-0.61598 1.10898,-0.6165 v -0.2465 l 0.49299,-0.12299 0.12351,-0.37 h 0.24649 l 0.98599,-1.10898 0.86248,-1.60248 0.49299,-2.09548 v -3.32797 l -0.49299,-1.72547 -1.10898,-2.09496 h -0.24649 v -0.24702 l -1.35599,-1.23248 -1.47898,-0.86248 -2.21847,-0.6165 -2.71146,-0.12299 z" /></clipPath><clipPath
       clipPathUnits="userSpaceOnUse"
       id="clipPath34"><path
         id="path34"
         style="display:none;stroke-width:0.123254"
         d="m 150.38359,163.18642 -0.98599,0.86248 v 0.73949 l 0.12351,0.12351 3.32796,-0.12351 0.24649,-0.2465 -0.49299,-0.86248 -0.6165,-0.49299 z" /><path
         id="lpe_path-effect34"
         style="stroke-width:0.123254"
         class="powerclip"
         d="m 143.53501,157.44673 h 15.17667 v 15.29992 h -15.17667 z m 6.84858,5.73969 -0.98599,0.86248 v 0.73949 l 0.12351,0.12351 3.32796,-0.12351 0.24649,-0.2465 -0.49299,-0.86248 -0.6165,-0.49299 z" /></clipPath></defs><g
     id="layer1"
     transform="translate(-27.869316,-108.58471)"><path
       d="m 199.68544,162.44673 h 0.86278 l 0.98603,0.36976 0.98603,0.86278 0.24651,0.61627 v 1.6023 l -0.49302,0.98604 -0.73952,0.61627 -0.98603,0.2465 h -0.98603 l -0.98604,-0.49301 -0.61627,-0.49302 -0.49301,-1.23254 v -0.86278 l 0.49301,-1.10928 0.49302,-0.61627 z"
       fill="#faf9fb"
       id="path14"
       style="fill:none;stroke-width:0.123254" /><path
       d="m 141.01652,131.75647 h 3.57437 l 2.21857,0.49302 1.6023,0.61627 1.84881,0.98603 1.6023,1.10928 v 0.24651 l 0.49302,0.24651 0.86278,0.86278 v 0.24651 h 0.24651 l 0.24651,0.61627 h 0.2465 l 0.73953,1.10928 0.98603,1.97207 0.36976,1.10928 0.36976,1.60231 0.12326,1.10928 v 2.09532 l -0.49302,2.58834 -0.61627,1.6023 -0.73952,1.35579 -0.98603,1.47905 h -0.24651 l -0.24651,0.49302 -0.61627,0.73952 -0.86278,0.73953 h -0.24651 v 0.2465 l -0.49301,0.24651 -0.12326,0.24651 h -0.36976 v 0.24651 l -2.71159,1.35579 -2.46508,0.73953 -0.73952,0.12325 h -3.08135 l -2.21858,-0.36976 -1.72555,-0.49302 -1.84881,-0.98603 -1.10929,-0.61627 -1.6023,-1.35579 -0.61627,-0.61627 v -0.24651 h -0.24651 l -0.36976,-0.49302 v -0.24651 h -0.24651 l -0.12325,-0.49301 h -0.24651 l -0.73953,-1.3558 -0.73952,-1.47905 -0.49302,-1.6023 -0.2465,-1.47905 v -2.95809 l 0.36976,-1.97207 0.86278,-2.21857 0.49301,-0.73952 0.73953,-1.3558 h 0.2465 l 0.24651,-0.61627 0.36976,-0.12325 0.24651,-0.49302 0.98603,-0.98603 h 0.24651 v -0.24651 l 0.61627,-0.24651 v -0.24651 l 1.10929,-0.73952 2.34183,-1.10929 2.21857,-0.61627 z"
       fill="#030101"
       id="path5"
       style="stroke-width:0.123254"
       clip-path="url(#clipPath32)" /><path
       d="m 40.934244,108.58471 1.725556,0.86278 3.327859,1.97206 3.451113,1.97207 3.204605,1.84881 2.958097,1.72555 6.039447,3.45112 1.109286,0.61627 0.493016,-0.12326 2.465081,-1.47905 3.451113,-1.97206 5.916193,-3.45111 3.451113,-1.97207 2.958097,-1.72555 2.588334,-1.47905 0.493017,-0.12326 v 12.81842 h 13.188181 l 0.123254,0.36977 -0.986032,1.6023 -1.972065,3.45111 -1.23254,2.09532 -1.972065,3.45111 -1.725556,2.9581 -1.848811,3.2046 -0.986032,1.72556 -1.355794,2.34183 -0.369762,0.73952 0.123254,0.61627 1.23254,1.97207 1.972065,3.45111 1.23254,2.09532 1.725556,2.95809 3.697621,6.40921 1.725557,2.9581 0.739524,1.35579 -0.123254,0.12326 H 84.812679 V 178.593 l -0.61627,-0.24651 -3.081351,-1.72556 -1.109286,-0.73952 -3.081351,-1.72556 -2.958097,-1.72555 -2.588335,-1.47905 -2.958096,-1.72556 -2.588335,-1.47905 -2.834843,-1.6023 -1.109286,0.36976 -2.958097,1.72556 -2.834842,1.6023 -5.053416,2.9581 -2.588334,1.47905 -5.546432,3.2046 -1.479048,0.86278 H 40.934244 V 165.40482 H 27.869317 l 0.246508,-0.73953 1.725556,-2.95809 1.972065,-3.45112 1.109286,-1.84881 3.697621,-6.40921 1.725556,-2.95809 1.109287,-1.97207 0.739524,-1.23254 -0.123254,-0.73952 -1.725557,-3.08135 -3.451112,-5.9162 -5.546432,-9.61381 -1.479048,-2.58833 v -0.12326 l 13.064927,-0.12325 -0.123254,-0.98604 z"
       fill="#3cb7fe"
       id="path2"
       style="stroke-width:0.123254"
       clip-path="url(#clipPath31)" /><path
       d="m 40.934244,108.58471 1.725556,0.86278 3.327859,1.97206 3.451113,1.97207 3.204605,1.84881 2.958097,1.72555 6.039447,3.45112 1.109286,0.61627 0.493016,-0.12326 2.465081,-1.47905 3.451113,-1.97206 5.916193,-3.45111 3.451113,-1.97207 2.958097,-1.72555 2.588334,-1.47905 0.493017,-0.12326 v 13.06493 l -0.986033,0.73953 -1.602302,0.98603 -2.095319,1.23254 -6.039447,3.45111 -2.711589,1.6023 -2.834842,1.60231 -0.739525,0.2465 -0.986032,-1.97206 -1.84881,-3.94413 -1.602303,-3.45111 -0.493016,-0.49302 -0.369762,1.10929 -1.23254,2.58833 -0.862778,1.84881 -0.862779,1.72556 -0.862778,1.97206 -0.246508,0.61627 -0.61627,-0.12325 -1.84881,-0.98603 -2.958097,-1.72556 -3.204605,-1.84881 -2.095318,-1.23254 -1.972065,-1.10929 -2.341826,-1.35579 -1.355795,-0.73952 0.862778,1.47904 1.602303,2.83485 3.697621,6.40921 1.972064,3.32785 1.109286,1.97207 -0.123254,0.36976 -4.437145,2.09532 -3.697621,1.72556 -1.479048,0.61627 h -0.246508 v 0.36976 l 0.739524,0.24651 2.834843,1.35579 3.574367,1.6023 2.46508,1.10929 0.369762,0.12325 -0.246508,0.86278 -1.725556,2.9581 -0.986032,1.72555 -1.232541,2.09532 -1.84881,3.20461 -1.725556,2.95809 -1.602303,2.58834 -0.739524,0.86278 H 27.869317 l 0.246508,-0.73953 1.725556,-2.95809 1.972065,-3.45112 1.109286,-1.84881 3.697621,-6.40921 1.725556,-2.95809 1.109287,-1.97207 0.739524,-1.23254 -0.123254,-0.73952 -1.725557,-3.08135 -3.451112,-5.9162 -5.546432,-9.61381 -1.479048,-2.58833 v -0.12326 l 13.064927,-0.12325 -0.123254,-0.98604 z"
       fill="#cf4b32"
       id="path3"
       style="stroke-width:0.123254" /><path
       d="m 159.75113,132.24949 10.23008,0.12325 2.21858,0.24651 2.71159,0.86278 1.6023,0.86278 0.98603,0.61627 v 0.24651 l 0.49302,0.2465 0.98603,0.86278 0.86278,1.10929 v 0.24651 h 0.2465 l 0.98604,1.97206 0.61627,1.6023 0.36976,1.60231 0.12325,0.98603 v 2.58833 l -0.2465,1.47905 -0.61627,2.21857 -0.86278,1.72556 -0.49302,0.86278 h -0.24651 l -0.36976,0.73952 h -0.24651 l -0.24651,0.49302 -0.61627,0.61627 h -0.2465 v 0.24651 l -0.49302,0.12325 v 0.24651 l -0.49302,0.12325 v 0.24651 l -1.72555,0.98603 -1.97207,0.73953 -1.47905,0.36976 -1.47904,0.12325 -4.06739,0.12326 h -7.64175 v -25.51359 z"
       fill="#040202"
       id="path6"
       style="stroke-width:0.123254"
       clip-path="url(#clipPath33)" /><path
       d="m 40.934244,108.58471 1.725556,0.86278 3.327859,1.97206 3.451113,1.97207 3.204605,1.84881 2.958097,1.72555 6.039447,3.45112 1.109286,0.61627 0.493016,-0.12326 2.465081,-1.47905 3.451113,-1.97206 5.916193,-3.45111 3.451113,-1.97207 2.958097,-1.72555 2.588334,-1.47905 0.493017,-0.12326 v 13.06493 l -0.986033,0.73953 -1.602302,0.98603 -2.095319,1.23254 -6.039447,3.45111 -2.711589,1.6023 -2.834842,1.60231 -0.739525,0.2465 -0.986032,-1.97206 -1.84881,-3.94413 -1.602303,-3.45111 -0.493016,-0.49302 -0.369762,1.10929 -1.23254,2.58833 -0.862778,1.84881 -0.862779,1.72556 -0.862778,1.97206 -0.246508,0.61627 -0.61627,-0.12325 -1.84881,-0.98603 -2.958097,-1.72556 -3.204605,-1.84881 -2.095318,-1.23254 -1.972065,-1.10929 -2.341826,-1.35579 -1.848811,-1.10929 -0.369762,-0.36976 -0.123254,-1.10929 z"
       fill="#8154bf"
       id="path7"
       style="stroke-width:0.123254" /><path
       d="m 230.49894,132.24949 h 3.32786 l 1.23254,0.12325 v 10.4766 H 247.508 l 0.2465,-0.12326 0.12326,-10.35334 h 4.80691 v 25.51359 h -4.80691 l -0.12326,-10.59985 -12.69516,-0.12325 v 10.59984 l -0.12325,0.12326 h -4.5604 l -0.12326,-25.51359 z"
       fill="#040202"
       id="path8"
       style="stroke-width:0.123254" /><path
       d="m 214.96893,131.63322 h 1.47905 l 1.84881,0.24651 1.97206,0.49301 1.47905,0.61627 1.6023,0.86278 0.36977,0.24651 v 0.24651 l 0.61627,0.24651 v 0.2465 l 0.49301,0.24651 0.61627,0.61627 v 0.24651 h 0.24651 l 0.86278,1.23254 0.86278,1.6023 0.61627,1.84881 0.24651,0.98604 -0.24651,0.12325 h -4.43715 l -0.24651,-0.12325 -0.49301,-1.3558 -0.86278,-1.47905 -0.12325,-0.36976 -0.49302,-0.24651 -0.61627,-0.61627 -0.86278,-0.49301 -0.61627,-0.36976 -1.97206,-0.49302 -1.84881,-0.12325 -2.21858,0.36976 -1.6023,0.61627 -0.73952,0.24651 v 0.2465 l -1.23254,0.98604 -0.61627,0.73952 h -0.24651 l -0.24651,0.73952 -0.49302,0.73953 -0.73952,2.46508 -0.12325,0.73952 v 1.84881 l 0.2465,1.72556 0.49302,1.6023 0.86278,1.47905 v 0.24651 h 0.24651 l 0.61627,0.86278 0.73952,0.49301 v 0.24651 l 0.61627,0.24651 1.10929,0.61627 1.72555,0.49302 0.98604,0.12325 h 2.46508 l 1.84881,-0.49302 1.6023,-0.86277 0.61627,-0.49302 0.49302,-0.61627 0.12325,-0.24651 h 0.24651 l 0.24651,-0.73952 0.12325,-0.24651 h 0.24651 l 0.12325,-0.73953 0.36976,-0.98603 0.24651,-0.12325 h 4.5604 l 0.12326,0.24651 -0.61627,2.09531 -0.86278,1.84882 -1.10929,1.6023 -1.23254,1.23254 -0.49302,0.36976 h -0.2465 v 0.24651 h -0.36977 v 0.24651 l -1.35579,0.73952 -1.35579,0.61627 -1.72556,0.49302 -1.47905,0.2465 h -2.58833 l -2.09532,-0.2465 -1.23254,-0.36977 -1.10929,-0.49301 -2.34183,-1.23254 v -0.24651 l -0.49301,-0.12325 v -0.24651 l -0.61627,-0.24651 -0.61627,-0.61627 -0.49302,-0.61627 -0.36976,-0.36976 -0.98603,-1.23254 -0.98603,-1.97207 -0.86278,-2.46508 -0.24651,-1.23254 v -3.08135 l 0.24651,-1.47905 0.61627,-1.97206 0.61627,-1.23254 0.73952,-1.3558 h 0.24651 l 0.24651,-0.61627 1.35579,-1.47905 0.36976,-0.36976 h 0.24651 v -0.24651 l 0.49302,-0.36976 h 0.24651 v -0.24651 l 1.23254,-0.73952 1.35579,-0.73952 1.3558,-0.49302 2.46508,-0.49302 z"
       fill="#030202"
       id="path9"
       style="stroke-width:0.123254" /><path
       d="m 115.37968,131.63322 h 1.35579 l 2.71159,0.36976 1.84881,0.61627 1.47905,0.73953 1.3558,0.86277 0.49301,0.36977 v 0.2465 l 0.49302,0.24651 0.73952,0.73953 v 0.24651 h 0.24651 l 0.12325,0.49301 h 0.24651 l 0.73953,1.3558 0.73952,1.47904 0.49302,1.72556 -0.12326,0.61627 h -4.5604 l -0.61627,-1.47905 -0.86277,-1.47905 -0.86278,-0.86277 v -0.24651 l -0.49302,-0.12326 v -0.2465 l -0.73952,-0.24651 -0.61627,-0.36976 -2.09532,-0.49302 -0.73953,-0.12325 h -1.10928 l -2.09532,0.36976 -1.6023,0.61627 -0.36976,0.24651 h -0.36977 v 0.2465 l -0.49301,0.12326 -0.12326,0.36976 -0.86278,0.73952 -0.2465,0.36977 h -0.24651 l -0.12326,0.49301 h -0.2465 v 0.36976 h -0.24651 l -0.24651,0.73953 -0.61627,1.97206 -0.24651,1.97207 0.12326,2.09532 0.61627,2.34182 0.36976,0.73953 v 0.2465 h 0.24651 v 0.36977 h 0.2465 v 0.36976 l 0.36977,0.12325 0.49301,0.73953 0.73953,0.49301 v 0.24651 l 0.61627,0.24651 1.35579,0.73952 1.84881,0.49302 h 2.71159 l 2.21857,-0.49302 0.86278,-0.2465 v -0.24651 l 1.23254,-0.73953 0.24651,-0.36976 h 0.24651 l 0.24651,-0.61627 0.49301,-0.61627 0.36976,-0.61627 0.49302,-1.47905 3.82087,-0.12325 h 0.98604 l -0.12326,1.23254 -0.73952,1.97206 -0.98603,1.72556 -0.24651,0.36976 h -0.24651 l -0.12325,0.49302 -0.98604,0.86278 -0.61627,0.61627 -0.98603,0.73952 h -0.36976 v 0.24651 l -1.47905,0.73952 -1.35579,0.49302 -1.60231,0.36976 -1.47904,0.12325 h -1.97207 l -2.46508,-0.36976 -1.84881,-0.61627 -1.6023,-0.86278 -0.86278,-0.49301 v -0.24651 l -0.49302,-0.12325 v -0.24651 l -0.61627,-0.24651 -0.2465,-0.49302 -0.49302,-0.2465 -0.24651,-0.49302 -0.36976,-0.12325 -1.23254,-1.72556 -0.98603,-1.84881 -0.61627,-1.97207 -0.36977,-1.72555 v -2.71159 l 0.36977,-2.09532 0.36976,-1.23254 0.86278,-1.72556 0.24651,-0.61627 h 0.2465 l 0.24651,-0.61627 0.24651,-0.49301 0.36976,-0.36976 0.24651,-0.36977 h 0.24651 l 0.24651,-0.49301 0.86277,-0.73953 0.49302,-0.49301 h 0.24651 v -0.24651 l 0.49301,-0.12326 v -0.2465 l 0.73953,-0.36977 h 0.24651 v -0.2465 l 1.23254,-0.61627 1.35579,-0.49302 1.47905,-0.36976 z"
       fill="#040202"
       id="path10"
       style="stroke-width:0.123254" /><path
       d="m 184.27868,132.37274 h 17.62533 v 4.06738 l -0.12326,0.12326 h -12.69516 v 6.28595 h 11.09286 v 3.94413 h -11.09286 l 0.12325,6.77897 h 12.81842 l 0.12325,0.24651 -0.12325,3.94413 -0.12325,0.12325 h -17.62533 z"
       fill="#070304"
       id="path11"
       style="stroke-width:0.123254" /><path
       d="m 177.49971,162.44673 h 0.86278 l 0.73952,0.24651 0.73953,0.49301 0.61627,0.73953 0.12325,0.36976 v 1.6023 l -0.49302,0.98604 -0.86277,0.61627 -0.86278,0.2465 h -0.98603 l -0.98604,-0.49301 -0.61627,-0.61627 -0.49301,-1.23254 0.12325,-1.10929 0.36976,-0.73952 0.61627,-0.61627 z"
       fill="#fbfbfc"
       id="path15"
       style="fill:none;stroke-width:0.123254" /><path
       d="m 150.63033,162.44673 1.47905,0.12325 0.61627,0.36977 v 0.2465 l 0.36976,0.12326 0.49302,0.86278 0.12325,1.10928 -0.98603,0.12326 h -2.58834 l -0.73952,-0.12326 0.36976,1.23254 0.86278,0.49302 h 1.35579 l 0.98604,-0.36976 0.49301,0.12325 -0.61627,0.61627 -0.86278,0.36976 h -1.47904 l -0.73953,-0.36976 -0.61627,-0.49301 -0.36976,-0.61628 -0.24651,-0.73952 v -0.86278 l 0.49302,-1.23254 0.86278,-0.73952 z"
       fill="#15090a"
       id="path16"
       style="stroke-width:0.123254"
       clip-path="url(#clipPath34)" /><path
       d="m 171.58352,160.72117 1.6023,0.12325 0.98603,0.49302 v 0.49302 l -1.23254,-0.24651 h -1.97206 l -0.61627,0.61627 -0.12325,0.49301 0.36976,0.73953 0.86278,0.36976 1.97206,0.49302 0.73952,0.61627 0.36977,0.86278 -0.36977,1.10928 -0.61627,0.49302 -0.73952,0.36976 h -1.84881 l -1.23254,-0.49302 -0.36976,-0.2465 -0.12326,-0.49302 0.24651,-0.12325 1.72556,0.61627 h 1.35579 l 0.86278,-0.36977 0.12325,-0.12325 v -0.98603 l -0.49301,-0.49302 -0.61627,-0.24651 -1.10929,-0.24651 -1.10928,-0.49301 -0.24651,-0.12326 v -0.2465 h -0.24651 L 169.4882,163.063 v -0.86278 l 0.49302,-0.86278 0.86278,-0.49302 z"
       fill="#120809"
       id="path17"
       style="fill:#15090a;fill-opacity:1;stroke-width:0.123254" /><path
       d="m 160.73716,160.35141 h 0.49302 l 0.12325,0.36976 v 1.97207 l 0.12325,0.49301 0.36977,-0.12325 v -0.24651 l 0.98603,-0.36976 1.35579,0.12325 0.73953,0.61627 0.36976,0.61627 0.12325,2.71159 v 1.10929 l -0.12325,0.12325 h -0.61627 l -0.12326,-0.36976 v -2.71159 l -0.36976,-1.10929 -0.49301,-0.2465 h -1.3558 l -0.73952,0.49301 -0.12326,0.24651 -0.2465,3.69762 h -0.61627 l -0.12326,-0.12325 v -7.14874 z"
       fill="#180a0b"
       id="path18"
       style="fill:#15090a;fill-opacity:1;stroke-width:0.123254" /><path
       d="m 199.68544,162.44673 h 0.86278 l 0.98603,0.36976 0.98603,0.86278 0.24651,0.61627 v 1.6023 l -0.49302,0.98604 -0.73952,0.61627 -0.98603,0.2465 h -0.98603 l -0.98604,-0.49301 -0.61627,-0.49302 -0.49301,-1.23254 v -0.86278 l 0.49301,-1.10928 0.49302,-0.61627 z m 0.24651,0.61627 -0.98603,0.36976 -0.61627,0.73953 -0.12326,0.98603 0.24651,1.10928 0.86278,0.73953 0.24651,0.12325 h 1.10928 l 0.49302,-0.12325 v -0.24651 l 0.49301,-0.24651 0.24651,-0.24651 0.24651,-1.23254 -0.36976,-1.23254 -0.73953,-0.61627 z"
       fill="#110708"
       id="path19"
       style="fill:#15090a;fill-opacity:1;stroke-width:0.123254" /><path
       d="m 177.49971,162.44673 h 0.86278 l 0.73952,0.24651 0.73953,0.49301 0.61627,0.73953 0.12325,0.36976 v 1.6023 l -0.49302,0.98604 -0.86277,0.61627 -0.86278,0.2465 h -0.98603 l -0.98604,-0.49301 -0.61627,-0.61627 -0.49301,-1.23254 0.12325,-1.10929 0.36976,-0.73952 0.61627,-0.61627 z m -0.12325,0.73952 -0.61627,0.24651 -0.61627,0.73953 -0.12326,1.10928 0.36976,1.10929 0.73953,0.61627 0.24651,0.12325 h 1.10928 l 0.61627,-0.2465 0.61627,-0.61628 0.12326,-0.49301 v -1.3558 l -0.24651,-0.61627 -0.73953,-0.61627 z"
       fill="#110709"
       id="path20"
       style="fill:#15090a;fill-opacity:1;stroke-width:0.123254" /><path
       d="m 204.36909,162.44673 h 0.36976 l 0.24651,0.73952 0.36976,-0.12325 v -0.24651 l 1.10929,-0.36976 1.35579,0.12325 0.24651,0.12326 v 0.24651 l 0.49302,0.2465 0.36976,0.73953 0.12325,0.49301 v 3.20461 l -0.73952,0.12325 -0.12326,-0.49301 v -2.58834 l -0.36976,-1.10928 -0.73952,-0.36977 -1.10929,0.12326 -0.73952,0.49301 -0.12326,0.24651 -0.12325,3.57437 -0.12325,0.12325 h -0.61627 l -0.12326,-1.84881 0.12326,-3.32786 z"
       fill="#190b0c"
       id="path21"
       style="fill:#15090a;fill-opacity:1;stroke-width:0.123254" /><path
       d="m 184.7717,162.44673 0.61627,0.12325 0.12325,3.20461 0.12326,0.86278 0.49301,0.24651 0.36977,0.12325 h 1.10928 l 0.61627,-0.36976 0.24651,-0.36977 0.12325,-0.98603 v -2.71159 l 0.61628,-0.12325 0.12325,0.12325 0.12325,2.46508 v 2.46509 l -0.12325,0.2465 -0.61627,-0.12325 v -0.49302 l -1.23254,0.61627 h -1.3558 l -0.86277,-0.49301 -0.49302,-0.73953 -0.12325,-0.49301 v -3.45112 z"
       fill="#13090d"
       id="path22"
       style="fill:#15090a;fill-opacity:1;stroke-width:0.123254" /><path
       d="m 211.88758,162.44673 h 0.98603 l 1.23254,0.49302 0.12326,0.36976 -0.61627,0.12325 -0.98604,-0.24651 -1.35579,0.12326 -0.12325,0.86278 0.49301,0.49301 2.21857,0.49302 v 0.24651 l 0.49302,0.2465 0.12325,0.86278 -0.73952,0.98604 -0.61627,0.2465 h -1.6023 l -0.86278,-0.36976 -0.36976,-0.24651 v -0.36976 h 0.61627 l 0.73952,0.24651 h 1.23254 l 0.61627,-0.24651 0.12326,-0.49302 -0.24651,-0.49301 -1.97207,-0.49302 -0.61627,-0.24651 v -0.2465 h -0.2465 l -0.24651,-0.73953 0.36976,-0.98603 z"
       fill="#16090b"
       id="path23"
       style="fill:#15090a;fill-opacity:1;stroke-width:0.123254" /><path
       d="m 142.1258,160.84442 h 5.54643 l -0.12325,0.61627 h -2.34183 v 6.28596 l -0.86278,-0.12326 v -6.03945 l -2.09532,-0.12325 -0.2465,-0.12325 z"
       fill="#12090f"
       id="path24"
       style="fill:#15090a;fill-opacity:1;stroke-width:0.123254" /><path
       d="m 191.42741,161.46069 h 0.73952 l 0.12326,0.12325 v 0.98604 l 0.49301,-0.12326 h 0.86278 l 0.12326,0.12326 v 0.61627 h -1.3558 l -0.12325,2.21857 0.12325,1.23254 0.24651,0.36976 h 1.23254 l 0.12325,0.49302 -0.12325,0.24651 h -1.47905 l -0.49301,-0.24651 -0.36977,-0.61627 -0.12325,-0.73953 v -2.95809 h -0.73952 l -0.12326,-0.49302 0.86278,-0.36976 z"
       fill="#200e13"
       id="path25"
       style="fill:#15090a;fill-opacity:1;stroke-width:0.123254" /><path
       d="m 156.91629,162.44673 1.23254,0.12325 0.61627,0.36977 v 0.2465 h 0.24651 l 0.12325,0.49302 h -0.49301 l -0.98604,-0.49302 -1.10928,0.12326 -0.61627,0.24651 -0.12326,0.2465 h -0.2465 l -0.12326,0.36977 v 1.72555 l 0.36976,0.73953 0.61627,0.36976 h 1.23254 l 0.86278,-0.36976 0.49302,-0.24651 0.12325,0.49302 -0.61627,0.49301 h -0.24651 v 0.24651 l -0.36976,0.12325 h -1.47905 l -0.73952,-0.36976 -0.86278,-0.86278 -0.36976,-1.10928 0.24651,-1.47905 0.73952,-0.86278 h 0.24651 v -0.24651 z"
       fill="#130809"
       id="path26"
       style="fill:#15090a;fill-opacity:1;stroke-width:0.123254" /><path
       d="m 182.06011,160.35141 h 0.61627 l 0.12325,0.49302 v 6.77897 l -0.61627,0.12325 -0.2465,-0.86278 z"
       fill="#1c0e17"
       id="path27"
       style="fill:#15090a;fill-opacity:1;stroke-width:0.123254" /><path
       d="m 195.37154,162.56998 h 0.73952 v 5.17667 h -0.73952 z"
       fill="#180c15"
       id="path29"
       style="fill:#15090a;fill-opacity:1;stroke-width:0.123254" /><path
       d="m 195.24829,160.47466 h 0.73952 l 0.24651,0.24651 v 0.49301 l -0.86278,0.12326 -0.2465,-0.73953 z"
       fill="#341925"
       id="path30"
       style="fill:#15090a;fill-opacity:1;stroke-width:0.123254" /><path
       d="m 97.754352,121.71127 -0.862778,1.72555 -1.972064,3.32786 -1.972065,3.45112 -1.84881,3.2046 -1.725557,2.9581 -3.451113,6.03945 -0.61627,1.10928 0.123254,0.49302 1.479049,2.46508 1.972064,3.45111 3.451113,5.91619 1.972064,3.45112 1.725557,2.95809 1.479048,2.58834 0.123254,0.49302 H 84.566171 l -0.739524,-0.98604 -0.986032,-1.6023 -1.232541,-2.09532 -3.451113,-6.03945 -1.602302,-2.71158 -1.602302,-2.83485 -0.246508,-0.73952 1.972064,-0.98603 3.944129,-1.84881 3.451113,-1.60231 0.493016,-0.49301 -1.109286,-0.36976 -2.588335,-1.23254 -1.84881,-0.86278 -1.725557,-0.86278 -1.972064,-0.86278 -0.61627,-0.24651 0.123254,-0.61627 0.986032,-1.84881 1.725556,-2.95809 1.848811,-3.20461 1.23254,-2.09532 1.109286,-1.97206 1.355795,-2.34183 1.109286,-1.84881 0.369762,-0.36976 1.109286,-0.12326 z"
       fill="#8154bf"
       id="use1"
       style="fill:#0097b2;fill-opacity:1;stroke-width:0.123254" /></g></svg>
